<svg width="205" height="72" viewBox="0 0 205 72" fill="none" xmlns="http://www.w3.org/2000/svg">
<g clip-path="url(#clip0_405_300)">
<path d="M174.074 72C173.033 71.061 172.006 70.1093 170.952 69.1829C170.755 69.0117 170.513 68.9015 170.254 68.8657C161.54 68.1363 153.133 65.3062 145.751 60.6176L144.926 60.0592C144.919 60.0343 144.919 60.008 144.926 59.9831C146.195 59.1456 147.578 58.3588 148.86 57.4452C149.925 56.7089 150.95 55.9169 151.931 55.0723C152.086 54.8944 152.3 54.7794 152.534 54.749C152.768 54.7186 153.005 54.7749 153.2 54.9073C154.355 55.5418 155.547 56.0874 156.715 56.6711L157.311 56.9884L154.24 59.5263C159.894 61.9218 165.889 63.4161 172.006 63.9549V21.3817C168.379 21.9373 165.057 23.7307 162.603 26.4575L157.425 21.3056C161.193 17.1921 166.323 14.5821 171.866 13.9584C172.006 13.3112 171.955 12.8925 171.27 12.5499C169.929 11.8533 168.87 10.7154 168.271 9.32818C167.672 7.941 167.57 6.38965 167.983 4.9362C168.393 3.49751 169.274 2.23848 170.486 1.36184C171.698 0.485205 173.17 0.0419726 174.665 0.103513C176.159 0.165054 177.59 0.727787 178.725 1.7011C179.861 2.67442 180.637 4.00167 180.926 5.46916C181.22 6.89335 181.033 8.37466 180.394 9.68117C179.756 10.9877 178.702 12.0457 177.399 12.6895C176.777 12.994 176.523 13.3112 176.751 14.0345C182.348 14.6107 187.541 17.2097 191.357 21.3437L186.167 26.5083C184.593 24.729 182.624 23.3428 180.419 22.4603C179.289 22.0162 178.097 21.7117 176.853 21.331V64.0183C182.993 63.5013 189.013 62.0241 194.694 59.6405L191.598 57.1026L192.486 56.6458C193.654 56.062 194.821 55.4783 196.014 54.9073C196.105 54.8634 196.205 54.8407 196.306 54.8407C196.407 54.8407 196.507 54.8634 196.598 54.9073C198.932 56.9148 201.486 58.6517 204.211 60.0846C202.651 60.9982 201.204 61.9119 199.707 62.724C194.028 65.7511 187.844 67.7163 181.459 68.5231C180.571 68.6373 179.683 68.7134 178.794 68.8657C178.453 68.9468 178.135 69.1077 177.868 69.3352C176.802 70.2108 175.774 71.1117 174.747 72H174.074ZM174.379 9.82164C174.97 9.8115 175.546 9.62771 176.034 9.2931C176.522 8.95849 176.902 8.48782 177.124 7.93955C177.347 7.39129 177.404 6.7896 177.288 6.20926C177.172 5.62892 176.888 5.0955 176.471 4.67527C176.054 4.25505 175.523 3.96655 174.944 3.84562C174.365 3.72469 173.762 3.77665 173.212 3.99506C172.662 4.21347 172.188 4.5887 171.85 5.07412C171.511 5.55954 171.323 6.13375 171.308 6.72541C171.308 7.12809 171.387 7.5268 171.542 7.89866C171.696 8.27052 171.923 8.60822 172.208 8.89236C172.493 9.1765 172.832 9.4015 173.204 9.55444C173.577 9.70738 173.976 9.78524 174.379 9.78357V9.82164ZM173.528 66.9242C173.666 66.5413 173.739 66.1382 173.744 65.7314C173.744 65.5538 173.236 65.4269 172.932 65.3507C172.516 65.2563 172.09 65.2094 171.663 65.2111C171.333 65.2111 170.825 65.2111 170.724 65.3761C170.598 65.7864 170.559 66.2187 170.61 66.645C170.46 66.7646 170.357 66.9326 170.317 67.1202C170.278 67.3078 170.305 67.5032 170.394 67.6729C170.496 67.914 170.927 68.0536 171.244 68.117C171.711 68.2178 172.188 68.2689 172.665 68.2693C172.97 68.2693 173.389 68.1932 173.516 68.0028C173.643 67.8125 173.846 67.1526 173.528 66.9369V66.9242ZM181.282 66.2644C181.312 65.8582 181.269 65.4499 181.155 65.0589C181.066 64.8812 180.571 64.8558 180.266 64.8812C179.708 64.8812 179.162 65.0335 178.604 65.1096C178.046 65.1858 178.046 65.4015 178.147 65.7695C178.242 66.0604 178.356 66.3445 178.49 66.6197C178.35 66.7719 178.272 66.9712 178.272 67.178C178.272 67.3848 178.35 67.5841 178.49 67.7363C178.617 67.9267 179.061 67.9774 179.366 67.9648C179.863 67.9456 180.357 67.869 180.837 67.7363C181.117 67.6602 181.523 67.5079 181.599 67.2922C181.68 67.1135 181.692 66.9114 181.634 66.7242C181.575 66.537 181.45 66.3779 181.282 66.2771V66.2644ZM175.203 66.3405L175.051 66.2136C175.203 66.0994 175.356 65.9217 175.521 65.8964C175.927 65.8964 176.358 65.8964 176.79 65.8075C176.967 65.8075 177.107 65.5918 177.272 65.4649L177.158 65.2873C176.434 65.2873 175.711 65.2873 174.988 65.4015C174.915 65.4203 174.848 65.4567 174.792 65.5076C174.737 65.5586 174.695 65.6223 174.67 65.6933C174.67 66.1248 174.67 66.5816 174.67 66.9623C175.368 66.9623 176.041 66.8481 176.701 66.8481C176.792 66.8647 176.878 66.9051 176.949 66.9652C177.021 67.0253 177.075 67.1031 177.107 67.1907C177.107 67.3176 176.942 67.546 176.777 67.6221C176.565 67.6966 176.341 67.7269 176.117 67.711H174.759L174.658 67.914C174.861 68.0409 175.051 68.2693 175.254 68.2693C175.818 68.2903 176.383 68.2606 176.942 68.1805C177.185 68.1706 177.415 68.0651 177.581 67.887C177.748 67.7088 177.837 67.4723 177.83 67.2288C177.83 66.6958 177.487 66.3659 176.853 66.3151C176.219 66.2644 175.736 66.3532 175.203 66.3532V66.3405ZM168.77 67.711H169.404L169.874 64.8685H168.605L168.516 65.0081L169.1 65.4649L168.77 67.711Z" fill="#12B6E3"/>
<path d="M0 54.8819C0.138236 54.7126 0.265395 54.5346 0.380684 54.349C7.38527 41.9894 14.3898 29.6172 21.3944 17.2323C21.4853 17.0207 21.6414 16.8437 21.8401 16.7273C22.0387 16.6108 22.2694 16.561 22.4984 16.5851C24.9602 16.5851 27.4219 16.5851 29.8837 16.5851C30.0434 16.5664 30.205 16.5979 30.3459 16.6752C30.4869 16.7525 30.6003 16.8718 30.6704 17.0166C37.8527 29.5537 45.0434 42.0867 52.2425 54.6154C52.306 54.7169 52.3567 54.8312 52.4455 54.9961H51.8745H42.9919C42.8125 55.0162 42.6316 54.976 42.4776 54.8818C42.3236 54.7875 42.2054 54.6447 42.1417 54.4758C40.7712 52.0268 39.3373 49.5777 38.0684 47.0906C38.0045 46.9422 37.8951 46.8179 37.756 46.7358C37.6168 46.6536 37.4551 46.6179 37.2943 46.6338H13.9584C13.7893 46.6171 13.6194 46.6565 13.4749 46.7459C13.3305 46.8354 13.2194 46.9698 13.159 47.1286C11.89 49.6665 10.5069 52.1283 9.16179 54.6154C9.1124 54.7164 9.04127 54.8051 8.95351 54.8753C8.86575 54.9456 8.76354 54.9955 8.65421 55.0215C5.7737 55.0215 2.90589 55.0215 0.0253789 55.0215L0 54.8819ZM17.245 39.6546H34.0585L25.7723 24.11L17.245 39.6546Z" fill="#050808"/>
<path d="M54.755 44.8953L62.6225 43.2584V47.7631H89.778V39.0455H89.042C80.8065 39.0455 72.5457 39.0455 64.3356 39.0455C63.2934 39.004 62.257 38.8681 61.2394 38.6394C59.9921 38.4375 58.8505 37.8176 58.002 36.8815C57.1535 35.9453 56.6484 34.7485 56.5696 33.4875C56.4154 32.5433 56.3305 31.589 56.3158 30.6324C56.3158 28.0945 56.3158 25.6454 56.4554 23.1456C56.5298 22.3154 56.7045 21.4973 56.9757 20.7092C57.2736 19.7349 57.853 18.8705 58.641 18.2247C59.4291 17.5789 60.3905 17.1807 61.4043 17.08C62.8585 16.8242 64.3312 16.6884 65.8076 16.674C73.2817 16.674 80.7431 16.674 88.2045 16.674C89.4559 16.7059 90.7031 16.8331 91.9352 17.0546C93.2138 17.1871 94.4082 17.7547 95.3183 18.6625C96.2285 19.5704 96.7991 20.7633 96.9348 22.0416C97.1378 23.3105 97.1886 24.5795 97.3155 25.8484L89.3338 27.7011V23.3867H64.1579V31.5968H64.8939C73.0406 31.5968 81.1999 31.5968 89.3465 31.5968C90.43 31.6288 91.5085 31.7562 92.5696 31.9774C93.793 32.1264 94.9304 32.6833 95.7984 33.5582C96.6664 34.4331 97.2143 35.5749 97.3536 36.7994C97.5565 37.5797 97.6756 38.3795 97.7089 39.185C97.7089 42.4843 97.6496 45.792 97.5312 49.1082C97.47 49.7067 97.3336 50.295 97.1251 50.8594C96.8282 51.8528 96.2426 52.7355 95.4427 53.3953C94.6429 54.0551 93.6649 54.4621 92.6331 54.5647C91.2015 54.8309 89.7493 54.971 88.2933 54.9834C79.7406 54.9834 71.1921 54.9834 62.6479 54.9834C61.4194 54.9232 60.2018 54.7231 59.0187 54.387C58.0858 54.1847 57.2308 53.7181 56.5558 53.0431C55.8807 52.3681 55.4142 51.5131 55.2119 50.5802C54.7711 48.7195 54.617 46.8025 54.755 44.8953Z" fill="#050808"/>
<path d="M145.256 29.338L136.297 30.7593V23.5136H112.188V47.7631H136.297V39.5404L145.434 41.4311C145.282 44.1466 145.294 46.8622 144.939 49.5397C144.495 52.7755 142.871 54.2348 139.622 54.7423C138.387 54.9283 137.14 55.0258 135.891 55.0342C127.643 55.0342 119.404 55.0342 111.172 55.0342C110.115 54.9806 109.065 54.8234 108.038 54.5647C106.835 54.3584 105.735 53.7553 104.914 52.8516C104.093 51.9478 103.598 50.7954 103.508 49.5777C103.322 48.3853 103.224 47.1807 103.216 45.9739C103.216 39.2062 103.216 32.4385 103.216 25.6708C103.24 24.3216 103.372 22.9765 103.609 21.6482C103.759 20.4561 104.308 19.3499 105.168 18.5108C106.028 17.6716 107.147 17.1493 108.343 17.0293C109.801 16.774 111.278 16.6382 112.759 16.6232C120.575 16.6232 128.396 16.6232 136.221 16.6232C137.499 16.655 138.771 16.7865 140.028 17.0166C141.272 17.1741 142.426 17.7454 143.305 18.6385C144.184 19.5315 144.737 20.6945 144.876 21.9401C145.219 24.3901 145.347 26.8657 145.256 29.338Z" fill="#050808"/>
<path d="M192.08 22.1812C194.924 25.5527 196.738 29.6705 197.307 34.044C197.876 38.4175 197.177 42.8625 195.291 46.8495C193.681 50.2874 191.234 53.2666 188.175 55.5144C185.115 57.7623 181.541 59.2071 177.779 59.7166V52.4202C180.371 51.8338 182.774 50.6063 184.768 48.8503C186.762 47.0943 188.283 44.8659 189.192 42.3693C190.101 39.8728 190.369 37.1879 189.972 34.5609C189.574 31.9339 188.523 29.4487 186.916 27.3331L192.08 22.1812Z" fill="#ED3042"/>
<path d="M170.978 59.7293C166.92 59.1515 163.091 57.4973 159.89 54.9387C156.688 52.3801 154.23 49.0105 152.771 45.1803C151.313 41.3501 150.907 37.1991 151.596 33.1589C152.285 29.1187 154.044 25.3368 156.689 22.2065L161.867 27.3712C160.357 29.324 159.328 31.6046 158.863 34.0287C158.398 36.4527 158.51 38.9522 159.189 41.3252C159.868 43.6981 161.096 45.8779 162.774 47.6885C164.452 49.499 166.532 50.8895 168.846 51.7476C169.343 51.9521 169.857 52.1134 170.381 52.2298C170.864 52.3186 171.029 52.509 171.016 53.0039C171.016 55.0469 171.016 57.0899 171.016 59.1202C171.003 59.3232 170.99 59.5262 170.978 59.7293Z" fill="#4FA046"/>
<path d="M174.379 9.78357C173.784 9.77605 173.205 9.59319 172.714 9.25792C172.223 8.92265 171.842 8.44989 171.618 7.89889C171.395 7.34789 171.339 6.74317 171.458 6.16055C171.576 5.57793 171.864 5.04332 172.286 4.62375C172.707 4.20418 173.243 3.91831 173.826 3.80198C174.409 3.68566 175.013 3.74404 175.564 3.96983C176.114 4.19561 176.585 4.57874 176.918 5.0712C177.251 5.56365 177.432 6.14351 177.437 6.73809C177.437 7.1391 177.358 7.53616 177.204 7.90648C177.05 8.27681 176.824 8.6131 176.54 8.89607C176.256 9.17903 175.919 9.40309 175.548 9.55539C175.177 9.7077 174.78 9.78524 174.379 9.78357Z" fill="#FCFDFE"/>
<path d="M173.528 66.9369C173.846 67.1526 173.795 67.6221 173.528 67.9901C173.262 68.3581 172.983 68.2439 172.678 68.2566C172.2 68.2562 171.724 68.2052 171.257 68.1043C170.94 68.0409 170.508 67.9013 170.407 67.6602C170.318 67.4905 170.291 67.2951 170.33 67.1075C170.369 66.9199 170.473 66.7519 170.623 66.6324C170.571 66.206 170.61 65.7738 170.737 65.3634C170.838 65.1858 171.346 65.1858 171.676 65.1985C172.103 65.1968 172.528 65.2436 172.945 65.338C173.249 65.4142 173.719 65.5411 173.757 65.7187C173.75 66.1348 173.673 66.5467 173.528 66.9369ZM172.792 67.7363C172.856 67.6729 173.021 67.546 173.046 67.3937C173.037 67.3149 173.007 67.2397 172.96 67.1754C172.914 67.111 172.852 67.0595 172.78 67.0257C172.336 66.9375 171.886 66.8865 171.435 66.8735C171.308 66.8735 171.067 67.0765 171.079 67.1399C171.092 67.2034 171.244 67.5333 171.371 67.5587C171.841 67.6461 172.316 67.7055 172.792 67.7363ZM171.638 65.706L171.232 66.0233C171.385 66.1685 171.561 66.2885 171.752 66.3786C172.01 66.462 172.281 66.4965 172.551 66.4801C172.753 66.4234 172.943 66.3287 173.11 66.2009C172.983 66.0616 172.832 65.9457 172.666 65.8583C172.327 65.7829 171.983 65.732 171.638 65.706Z" fill="#EFF9FC"/>
<path d="M181.282 66.277C181.444 66.3861 181.561 66.5509 181.61 66.7403C181.659 66.9298 181.637 67.1306 181.548 67.3049C181.472 67.5206 181.066 67.6729 180.787 67.749C180.307 67.8817 179.813 67.9583 179.315 67.9774C179.01 67.9774 178.566 67.9774 178.439 67.749C178.299 67.5968 178.221 67.3975 178.221 67.1907C178.221 66.9839 178.299 66.7846 178.439 66.6323C178.305 66.3572 178.191 66.0731 178.097 65.7822C177.995 65.4142 178.173 65.1857 178.553 65.1223C178.934 65.0589 179.657 64.932 180.216 64.8939C180.52 64.8939 181.015 64.8939 181.104 65.0715C181.235 65.4595 181.295 65.8678 181.282 66.277ZM180.647 66.4928C180.076 66.5943 179.619 66.645 179.175 66.7466C179.061 66.7466 178.896 67.0384 178.934 67.1145C178.972 67.1907 179.188 67.4318 179.315 67.4191C179.743 67.4028 180.168 67.3433 180.584 67.2414C180.663 67.2056 180.732 67.151 180.785 67.0825C180.838 67.0139 180.873 66.9335 180.888 66.8481C180.914 66.7212 180.711 66.5816 180.647 66.4928ZM179.061 66.2644C179.594 66.1755 180.038 66.1248 180.457 66.0233C180.52 65.9897 180.575 65.9408 180.615 65.881C180.654 65.8211 180.679 65.7523 180.685 65.6806C180.685 65.5664 180.482 65.3888 180.381 65.4015C179.923 65.4309 179.469 65.4988 179.023 65.6045C178.934 65.6045 178.833 65.8583 178.845 65.9725C178.858 66.0867 179.01 66.1882 179.061 66.2644Z" fill="#F2FAFD"/>
<path d="M175.203 66.3532C175.736 66.3532 176.269 66.3532 176.815 66.3532C177.361 66.3532 177.792 66.7339 177.792 67.2668C177.799 67.5104 177.709 67.7469 177.543 67.925C177.377 68.1032 177.147 68.2086 176.904 68.2185C176.345 68.2987 175.78 68.3284 175.216 68.3074C175.013 68.3074 174.823 68.079 174.62 67.9521L174.721 67.749H176.079C176.303 67.7649 176.527 67.7347 176.739 67.6602C176.904 67.5841 177.094 67.3557 177.069 67.2288C177.037 67.1411 176.983 67.0634 176.911 67.0033C176.84 66.9431 176.754 66.9028 176.663 66.8862C176.003 66.8862 175.33 66.9623 174.632 67.0004C174.632 66.5816 174.632 66.1248 174.632 65.7314C174.657 65.6604 174.699 65.5966 174.754 65.5457C174.81 65.4948 174.877 65.4583 174.95 65.4396C175.673 65.4396 176.396 65.3507 177.119 65.3253L177.234 65.503C177.069 65.6299 176.929 65.8202 176.751 65.8456C176.345 65.9218 175.914 65.8456 175.483 65.9344C175.318 65.9344 175.165 66.1375 175.013 66.2517L175.203 66.3532Z" fill="#ECF8FC"/>
<path d="M168.77 67.711L169.125 65.503L168.541 65.0462L168.63 64.9066H169.899L169.43 67.749L168.77 67.711Z" fill="#F1FAFC"/>
<path d="M17.245 39.6673L25.7723 24.11L34.0585 39.7053L17.245 39.6673Z" fill="#FBFBFB"/>
<path d="M172.792 67.7364C172.316 67.7055 171.841 67.6462 171.371 67.5587C171.244 67.5587 171.105 67.3049 171.079 67.14C171.054 66.975 171.308 66.8735 171.435 66.8735C171.886 66.8865 172.336 66.9375 172.78 67.0257C172.852 67.0595 172.914 67.111 172.96 67.1754C173.007 67.2397 173.037 67.3149 173.046 67.3937C173.021 67.546 172.856 67.6729 172.792 67.7364Z" fill="#1CB9E4"/>
<path d="M171.638 65.706C171.983 65.732 172.327 65.7829 172.665 65.8583C172.832 65.9457 172.983 66.0616 173.11 66.2009C172.943 66.3287 172.753 66.4234 172.551 66.4801C172.281 66.4965 172.01 66.462 171.752 66.3786C171.561 66.2885 171.385 66.1685 171.232 66.0233L171.638 65.706Z" fill="#1CB9E4"/>
<path d="M180.647 66.4928C180.647 66.5816 180.914 66.7212 180.914 66.8481C180.899 66.9335 180.863 67.0139 180.81 67.0825C180.757 67.151 180.688 67.2056 180.609 67.2414C180.193 67.3433 179.768 67.4029 179.34 67.4191C179.213 67.4191 179.023 67.2541 178.959 67.1145C178.896 66.975 179.086 66.7719 179.201 66.7466C179.619 66.645 180.076 66.5943 180.647 66.4928Z" fill="#20BAE5"/>
<path d="M179.061 66.2644C179.061 66.1882 178.845 66.0867 178.845 65.9725C178.845 65.8583 178.934 65.6299 179.023 65.6045C179.469 65.4988 179.923 65.4309 180.381 65.4015C180.482 65.4015 180.66 65.5664 180.685 65.6807C180.679 65.7523 180.654 65.8211 180.615 65.881C180.575 65.9408 180.52 65.9897 180.457 66.0233C180.038 66.1248 179.594 66.1755 179.061 66.2644Z" fill="#1FBAE5"/>
</g>
<defs>
<clipPath id="clip0_405_300">
<rect width="204.237" height="72" fill="white"/>
</clipPath>
</defs>
</svg>
