<svg width="186" height="146" viewBox="0 0 186 146" fill="none" xmlns="http://www.w3.org/2000/svg">
<g clip-path="url(#clip0_1239_3296)">
<path d="M75.36 55.14C75.36 54.61 75.36 54.14 75.28 53.59C75.2302 53.1091 75.1364 52.6338 75 52.17C74.8694 51.675 74.6779 51.198 74.43 50.75C74.2072 50.3465 73.9162 49.9845 73.57 49.68C73.2675 49.4506 72.9298 49.2716 72.57 49.15C72.1845 49.016 71.7781 48.9517 71.37 48.96C70.9792 48.9533 70.5901 49.0142 70.22 49.14C69.8913 49.2535 69.5863 49.4264 69.32 49.65C68.9737 49.9518 68.6856 50.3144 68.47 50.72C68.2529 51.1816 68.0949 51.6688 68 52.17C67.8903 52.6374 67.8134 53.1119 67.77 53.59C67.77 54.1 67.7 54.59 67.7 55.14V58.14C67.7 58.6467 67.72 59.1467 67.76 59.64C67.8068 60.0986 67.887 60.5531 68 61C68.1073 61.4941 68.2717 61.974 68.49 62.43C68.6766 62.8352 68.9378 63.2016 69.26 63.51C69.5489 63.7786 69.889 63.9861 70.26 64.12C71.0618 64.407 71.9383 64.407 72.74 64.12C73.1115 63.9968 73.4525 63.7956 73.74 63.53C74.0802 63.2274 74.3615 62.8647 74.57 62.46C74.7689 61.9915 74.9132 61.5016 75 61C75.1191 60.5472 75.2027 60.0858 75.25 59.62C75.25 59.12 75.33 58.62 75.33 58.09L75.36 55.14ZM78.26 62.88C77.9564 63.5729 77.5667 64.2247 77.1 64.82C76.2281 65.947 75.0196 66.7667 73.65 67.16C72.935 67.3658 72.194 67.4668 71.45 67.46C70.6743 67.4677 69.902 67.3564 69.16 67.13C68.4815 66.9133 67.8405 66.5929 67.26 66.18C66.6965 65.7546 66.1979 65.2492 65.78 64.68C65.333 64.0641 64.9698 63.3916 64.7 62.68C64.4194 61.9772 64.2149 61.2464 64.09 60.5C63.9492 59.6942 63.8756 58.878 63.87 58.06V55.17C63.8772 54.3114 63.9575 53.455 64.11 52.61C64.2474 51.8241 64.4721 51.056 64.78 50.32C65.0606 49.6624 65.4199 49.0412 65.85 48.47C66.266 47.9112 66.7612 47.416 67.32 47C67.884 46.5973 68.5085 46.2867 69.17 46.08C70.6572 45.6336 72.2428 45.6336 73.73 46.08C74.4103 46.2865 75.0545 46.5968 75.64 47C76.198 47.3897 76.6936 47.8617 77.11 48.4C77.5418 48.9522 77.9076 49.5529 78.2 50.19C78.5266 50.9346 78.7714 51.7125 78.93 52.51C79.0953 53.3738 79.1823 54.2506 79.19 55.13V58.1C79.1796 58.949 79.096 59.7954 78.94 60.63C78.798 61.403 78.57 62.1577 78.26 62.88ZM126.73 92L124.44 83.94L122.09 92H126.73ZM126.15 78.75L132.9 99.85H129L127.68 95.23H121.19L119.85 99.85H115.85L122.75 78.75H126.15ZM92.46 67.17H96.24V46.07H92.44V60.07L86.12 46.07H82.29V67.17H86.1V53.11L92.46 67.17ZM128.56 54C128.714 53.5669 128.788 53.1096 128.78 52.65C128.788 52.1219 128.699 51.5968 128.52 51.1C128.354 50.6724 128.082 50.2939 127.73 50C127.382 49.7144 126.981 49.5003 126.55 49.37C126.047 49.2192 125.525 49.145 125 49.15H121.89V56.07H125C125.565 56.0788 126.127 55.9874 126.66 55.8C127.122 55.639 127.54 55.3718 127.88 55.02C128.165 54.7366 128.387 54.3957 128.53 54.02M128.71 58.24L133.26 67V67.19H129.26L125.26 59.19H121.93V67.19H118.15V46.07H125C126.045 46.0582 127.086 46.1997 128.09 46.49C128.963 46.7292 129.779 47.1406 130.49 47.7C131.161 48.2312 131.693 48.9176 132.04 49.7C132.656 51.2131 132.748 52.8889 132.3 54.46C132.131 55.0293 131.874 55.569 131.54 56.06C131.193 56.5371 130.779 56.9615 130.31 57.32C129.824 57.6869 129.297 57.9957 128.74 58.24M85.5 88.69H88.65C89.215 88.6988 89.777 88.6074 90.31 88.42C90.7697 88.2542 91.1865 87.9877 91.53 87.64C91.8153 87.3566 92.0369 87.0157 92.18 86.64C92.334 86.2069 92.4085 85.7496 92.4 85.29C92.4094 84.7609 92.3178 84.2348 92.13 83.74C91.9651 83.309 91.6933 82.927 91.34 82.63C90.9896 82.3536 90.5937 82.1404 90.17 82C89.6674 81.8492 89.1448 81.775 88.62 81.78H85.5V88.69ZM81.72 78.69H88.62C89.665 78.6782 90.7061 78.8197 91.71 79.11C92.5788 79.3543 93.3933 79.7615 94.11 80.31C94.7801 80.8398 95.3091 81.5268 95.65 82.31C96.0346 83.1782 96.2224 84.1207 96.2 85.07C96.2102 85.7471 96.1157 86.4217 95.92 87.07C95.7514 87.6414 95.4914 88.1817 95.15 88.67C94.8092 89.1491 94.3979 89.5739 93.93 89.93C93.4399 90.2929 92.9138 90.6046 92.36 90.86L96.88 99.62V99.81H92.88L88.88 91.81H85.5V99.81H81.72V78.69ZM50 53.46C50.0401 52.9654 50.1306 52.4762 50.27 52C50.4045 51.4684 50.6168 50.9596 50.9 50.49C51.1543 50.0861 51.4961 49.7443 51.9 49.49C52.1624 49.3049 52.4527 49.1631 52.76 49.07C53.0844 48.972 53.4212 48.9215 53.76 48.92C54.3122 48.9066 54.862 48.9982 55.38 49.19C55.8088 49.3501 56.1929 49.6107 56.5 49.95C56.813 50.3114 57.0479 50.7336 57.19 51.19C57.3588 51.7359 57.4629 52.2998 57.5 52.87H61.28C61.1977 51.8623 60.9581 50.8737 60.57 49.94C60.2316 49.1065 59.7208 48.354 59.0711 47.7318C58.4214 47.1097 57.6474 46.632 56.8 46.33C55.8367 45.9911 54.8211 45.8252 53.8 45.84C53.0454 45.8322 52.2939 45.9367 51.57 46.15C50.9076 46.338 50.2772 46.6246 49.7 47C49.0573 47.4266 48.4839 47.9493 48 48.55C47.509 49.1871 47.1178 49.8952 46.84 50.65C46.5561 51.3413 46.3515 52.0626 46.23 52.8C46.088 53.5921 46.0178 54.3953 46.02 55.2V58.07C46.0203 58.9148 46.0939 59.758 46.24 60.59C46.3767 61.35 46.5912 62.0939 46.88 62.81C47.1341 63.4726 47.47 64.1008 47.88 64.68C48.2871 65.2336 48.7721 65.7254 49.32 66.14C49.9277 66.5802 50.6033 66.918 51.32 67.14C52.1015 67.3745 52.9141 67.4892 53.73 67.48C54.7505 67.4983 55.7662 67.3358 56.73 67C57.584 66.6933 58.3691 66.221 59.04 65.61C59.6933 65.0025 60.2201 64.2718 60.59 63.46C60.9852 62.5637 61.2253 61.6068 61.3 60.63H57.53C57.4926 61.2004 57.3747 61.7626 57.18 62.3C57.0149 62.736 56.7632 63.134 56.44 63.47C56.125 63.7907 55.7374 64.0308 55.31 64.17C54.8192 64.3285 54.3058 64.4062 53.79 64.4C53.3795 64.4074 52.9706 64.3466 52.58 64.22C52.219 64.1158 51.8801 63.9463 51.58 63.72C51.3124 63.4949 51.0828 63.2281 50.9 62.93C50.6934 62.6182 50.5255 62.2824 50.4 61.93C50.2041 61.3662 50.0699 60.7828 50 60.19C49.9079 59.4872 49.8644 58.7788 49.87 58.07V55.17C49.8818 54.5981 49.9252 54.0272 50 53.46ZM74 92.74C73.9965 93.3537 73.9193 93.9648 73.77 94.56C73.6423 95.0526 73.418 95.5149 73.11 95.92C72.8495 96.2693 72.5057 96.5477 72.11 96.73C71.6646 96.9194 71.1839 97.0114 70.7 97C70.2389 97.0095 69.7814 96.9173 69.36 96.73C68.9652 96.5556 68.6211 96.2838 68.36 95.94C68.0618 95.533 67.8477 95.0707 67.73 94.58C67.5833 93.9709 67.5094 93.3465 67.51 92.72V78.72H63.76V92.72C63.7461 93.768 63.9153 94.8103 64.26 95.8C64.5641 96.6598 65.0443 97.4466 65.67 98.11C66.2883 98.744 67.035 99.2384 67.86 99.56C68.7719 99.9116 69.7428 100.085 70.72 100.07C71.7432 100.091 72.7612 99.9178 73.72 99.56C74.5634 99.2467 75.3256 98.7477 75.95 98.1C76.576 97.4386 77.0533 96.651 77.35 95.79C77.6956 94.804 77.8649 93.7648 77.85 92.72V78.72H74V92.74ZM145.24 78.74V92.74C145.237 93.3537 145.159 93.9648 145.01 94.56C144.882 95.0526 144.658 95.5149 144.35 95.92C144.09 96.2693 143.746 96.5477 143.35 96.73C142.903 96.9276 142.419 97.0265 141.93 97.02C141.469 97.0295 141.011 96.9373 140.59 96.75C140.195 96.5756 139.851 96.3037 139.59 95.96C139.306 95.5498 139.105 95.0877 139 94.6C138.853 93.9909 138.779 93.3665 138.78 92.74V78.74H135V92.74C134.986 93.788 135.155 94.8303 135.5 95.82C135.8 96.6816 136.281 97.4691 136.91 98.13C137.528 98.764 138.275 99.2584 139.1 99.58C140.012 99.9316 140.983 100.105 141.96 100.09C142.983 100.111 144.001 99.9378 144.96 99.58C145.803 99.2667 146.566 98.7677 147.19 98.12C147.816 97.4586 148.293 96.671 148.59 95.81C148.932 94.8233 149.098 93.7842 149.08 92.74V78.74H145.24ZM152.18 49.21H158.63V67.21H162.4V49.21H169V46.11H152.21L152.18 49.21ZM139.9 57.82H148.59V54.82H139.9V49.17H150V46.07H136.1V67.17H150.1V64.1H139.9V57.82ZM57.16 93.61C57.1876 93.1607 57.1334 92.71 57 92.28C56.8641 91.9007 56.6415 91.5582 56.35 91.28C56.0501 90.9886 55.6876 90.7697 55.29 90.64C54.8059 90.4811 54.2996 90.4001 53.79 90.4H49.89V96.75H53.61C54.1086 96.7449 54.6037 96.6674 55.08 96.52C55.4824 96.3962 55.8586 96.1997 56.19 95.94C56.5061 95.6641 56.7586 95.323 56.93 94.94C57.1118 94.5277 57.2005 94.0805 57.19 93.63M49.89 87.63H53C53.5442 87.63 54.0858 87.556 54.61 87.41C55.0494 87.2901 55.4538 87.0672 55.79 86.76C56.0624 86.5287 56.278 86.2379 56.42 85.91C56.5744 85.5432 56.6494 85.1479 56.64 84.75C56.6471 84.3412 56.5794 83.9345 56.44 83.55C56.3146 83.2288 56.116 82.9412 55.86 82.71C55.5171 82.4036 55.1055 82.1841 54.66 82.07C54.1193 81.9149 53.5621 81.8243 53 81.8H49.86L49.89 87.63ZM57.38 88.9C57.9611 89.0483 58.5125 89.2952 59.01 89.63C59.4173 89.9047 59.7784 90.2423 60.08 90.63C60.3854 91.0542 60.6154 91.5278 60.76 92.03C60.9169 92.549 60.9977 93.0879 61 93.63C61.0189 94.5489 60.8345 95.4607 60.46 96.3C60.1179 97.0518 59.6041 97.7129 58.96 98.23C58.2635 98.7685 57.4687 99.1659 56.62 99.4C55.6446 99.6774 54.6341 99.8121 53.62 99.8H46.12V78.7H53C54.0106 78.6937 55.0181 78.8113 56 79.05C56.8466 79.2389 57.6526 79.5776 58.38 80.05C59.0326 80.514 59.5641 81.1279 59.93 81.84C60.3088 82.6387 60.4905 83.5166 60.46 84.4C60.4531 84.994 60.3449 85.5825 60.14 86.14C59.9368 86.6735 59.6272 87.16 59.23 87.57C58.9865 87.84 58.7072 88.0755 58.4 88.27C58.0845 88.4813 57.7497 88.6621 57.4 88.81M175.51 64.1V57.82H184.21V54.82H175.51V49.17H185.61V46.07H171.72V67.17H185.67V64.1H175.51ZM113.61 81.8V78.7H99.72V99.8H113.72V96.73H103.51V90.45H112.21V87.45H103.51V81.8H113.61ZM119 136.27V122.84H26.87V136.28C26.8806 137.801 27.4921 139.256 28.5712 140.327C29.6502 141.399 31.1093 142 32.63 142H113.24C113.997 142.001 114.746 141.853 115.446 141.564C116.145 141.275 116.781 140.851 117.316 140.316C117.851 139.781 118.275 139.145 118.564 138.446C118.853 137.746 119.001 136.997 119 136.24M23 119V26.87H9.60002C8.07237 26.87 6.6073 27.4769 5.52709 28.5571C4.44688 29.6373 3.84002 31.1024 3.84002 32.63V113.24C3.84002 114.768 4.44688 116.233 5.52709 117.313C6.6073 118.393 8.07237 119 9.60002 119H23ZM26.84 23H119V9.60002C118.997 8.07319 118.39 6.60964 117.31 5.53001C116.23 4.45037 114.767 3.84266 113.24 3.84002H32.63C31.1024 3.84002 29.6373 4.44688 28.5571 5.52709C27.4769 6.6073 26.87 8.07237 26.87 9.60002L26.84 23ZM122.84 119V136.27C122.841 137.531 122.594 138.78 122.112 139.945C121.63 141.111 120.923 142.169 120.031 143.061C119.139 143.953 118.081 144.66 116.915 145.142C115.75 145.624 114.501 145.871 113.24 145.87H32.63C30.0865 145.867 27.6477 144.856 25.8482 143.059C24.0488 141.261 23.0353 138.824 23.03 136.28V122.84H9.60002C7.05476 122.837 4.6145 121.825 2.81472 120.025C1.01494 118.226 0.00266801 115.785 2.08243e-05 113.24V32.63C-0.00260805 31.3672 0.243691 30.1162 0.724836 28.9486C1.20598 27.781 1.91254 26.7197 2.80411 25.8253C3.69568 24.931 4.75479 24.2211 5.92088 23.7363C7.08697 23.2515 8.33718 23.0013 9.60002 23H23V9.60002C23.0013 8.33718 23.2515 7.08697 23.7363 5.92088C24.2211 4.75479 24.931 3.69568 25.8253 2.80411C26.7197 1.91254 27.781 1.20598 28.9486 0.724836C30.1162 0.243691 31.3672 -0.00260805 32.63 2.08243e-05H113.24C114.501 -0.00129484 115.75 0.246119 116.915 0.728098C118.081 1.21008 119.139 1.91716 120.031 2.80886C120.923 3.70057 121.63 4.75938 122.112 5.9247C122.594 7.09002 122.841 8.33896 122.84 9.60002V26.87H26.84V119H122.84ZM103.31 55.17V58.07C103.304 58.7788 103.348 59.4872 103.44 60.19C103.515 60.773 103.653 61.3463 103.85 61.9C103.976 62.2524 104.143 62.5882 104.35 62.9C104.539 63.1962 104.772 63.4625 105.04 63.69C105.341 63.9152 105.679 64.0845 106.04 64.19C106.431 64.3166 106.84 64.3774 107.25 64.37C107.766 64.3771 108.279 64.2994 108.77 64.14C109.197 64.0008 109.585 63.7607 109.9 63.44C110.227 63.1067 110.479 62.708 110.64 62.27C110.835 61.7326 110.953 61.1704 110.99 60.6H114.77C114.7 61.5775 114.46 62.5353 114.06 63.43C113.694 64.2438 113.166 64.9752 112.51 65.58C111.83 66.2062 111.031 66.6891 110.16 67C109.196 67.3366 108.181 67.4991 107.16 67.48C106.344 67.4892 105.532 67.3745 104.75 67.14C104.033 66.918 103.358 66.5802 102.75 66.14C102.202 65.7254 101.717 65.2336 101.31 64.68C100.9 64.1008 100.564 63.4726 100.31 62.81C100.021 62.0939 99.8067 61.35 99.67 60.59C99.5273 59.7577 99.457 58.9145 99.46 58.07V55.2C99.4545 54.3956 99.5215 53.5924 99.66 52.8C99.7861 52.0637 99.9906 51.3429 100.27 50.65C100.556 49.8988 100.946 49.1918 101.43 48.55C101.911 47.9501 102.481 47.4274 103.12 47C103.696 46.6123 104.326 46.3123 104.99 46.11C105.714 45.8967 106.465 45.7922 107.22 45.8C108.241 45.7871 109.256 45.9529 110.22 46.29C111.066 46.5977 111.839 47.0779 112.49 47.7C113.137 48.3199 113.644 49.0697 113.98 49.9C114.368 50.8337 114.608 51.8223 114.69 52.83H111C110.963 52.2598 110.859 51.6959 110.69 51.15C110.548 50.6936 110.313 50.2714 110 49.91C109.693 49.5707 109.309 49.3101 108.88 49.15C108.362 48.9582 107.812 48.8666 107.26 48.88C106.921 48.8827 106.585 48.9332 106.26 49.03C105.953 49.1231 105.662 49.2649 105.4 49.45C104.996 49.7038 104.654 50.0456 104.4 50.45C104.114 50.9192 103.898 51.428 103.76 51.96C103.616 52.4464 103.519 52.9453 103.47 53.45C103.409 54.0179 103.378 54.5888 103.38 55.16" fill="white"/>
</g>
<defs>
<clipPath id="clip0_1239_3296">
<rect width="186" height="146" fill="white"/>
</clipPath>
</defs>
</svg>
