<svg width="71" height="123" viewBox="0 0 71 123" fill="none" xmlns="http://www.w3.org/2000/svg">
<path d="M0 0H70.8323V1.31026C70.8323 29.488 70.8416 57.6656 70.8603 85.8433C70.8603 88.9476 68.5208 92.2772 64.9553 92.8032C64.0384 92.9449 63.1129 93.0234 62.1853 93.038C57.0383 93.0709 51.8912 93.038 46.7442 93.0897C44.6574 93.0897 42.5611 93.0897 40.4836 93.2916C38.8132 93.4372 37.5451 94.4798 36.4455 95.6914C36.0712 96.1047 35.753 96.5696 35.36 97.0721C34.8266 96.4194 34.382 95.776 33.8439 95.2312C33.1492 94.5229 32.3168 93.9656 31.3983 93.5939C30.4798 93.2223 29.495 93.0442 28.5051 93.0709C21.6362 93.0709 14.7626 93.0944 7.89365 93.0286C5.00196 92.9864 2.55011 91.9814 1.00133 89.3562C0.201201 88.0036 0.042112 86.5384 0.0374329 85.0309C0.0155971 78.8412 0.0155971 72.6515 0.0374329 66.4618V1.30087L0 0ZM66.8269 4.28771H4.12697V65.7057C4.12697 68.2698 4.29074 68.5234 6.70515 69.4157C6.94904 69.5062 7.19928 69.5784 7.45381 69.6318C10.8976 70.3268 14.2104 70.247 17.0553 67.8754C21.1589 70.7964 25.197 70.7448 29.221 67.9317C33.4322 70.6556 37.6434 70.834 41.7516 67.9317C45.8833 70.8011 49.9213 70.6931 53.9173 67.9317C57.7635 70.5569 61.722 70.6368 65.8069 68.6737C66.5883 68.2933 66.8644 67.7345 66.8644 66.7952C66.8394 46.3507 66.8394 25.9094 66.8644 5.47117L66.8269 4.28771ZM35.2477 91.0233C36.5812 89.0321 38.5231 88.5766 40.652 88.5766C47.4492 88.5766 54.2448 88.5609 61.0389 88.5296C61.8262 88.5268 62.6107 88.437 63.3784 88.2619C65.718 87.7265 66.986 85.9138 66.7006 83.5938C66.628 83.58 66.5533 83.58 66.4807 83.5938C66.3012 83.6439 66.126 83.7083 65.9566 83.7864C62.101 85.6085 58.2829 85.7165 54.4741 83.6079C54.261 83.5315 54.0343 83.5008 53.8086 83.5178C53.583 83.5348 53.3633 83.5991 53.164 83.7065C49.6734 85.6508 46.1874 85.6414 42.7062 83.7441C42.4249 83.5735 42.1039 83.4802 41.7754 83.4736C41.4468 83.467 41.1223 83.5473 40.8345 83.7065C39.0471 84.5331 37.2691 85.4723 35.2664 85.1154C33.5554 84.8055 31.8775 84.3338 30.2551 83.7065C29.943 83.5676 29.603 83.5034 29.262 83.5188C28.921 83.5343 28.5882 83.6291 28.2899 83.7957C26.5305 84.6646 24.6823 85.4488 22.7124 85.1342C21.0513 84.8665 19.4651 84.1527 17.8274 83.6877C17.4038 83.5267 16.9379 83.5168 16.5079 83.6596C12.8488 85.6508 9.17572 85.6696 5.45115 83.885C5.07683 83.7065 4.67442 83.5938 4.22055 83.4154C4.25798 86.4679 5.35289 87.8158 8.09485 88.3371C8.75378 88.4615 9.42236 88.5275 10.0928 88.5343C16.6997 88.5625 23.3066 88.5797 29.9135 88.586C30.9287 88.5587 31.9368 88.764 32.8611 89.1863C33.7854 89.6087 34.6016 90.2369 35.2477 91.0233ZM4.32817 77.6154C3.83219 78.8553 4.00999 80.0434 4.79608 80.6399C7.88429 82.941 13.5694 82.988 16.3394 80.607C16.8073 80.1937 17.2285 80.1373 17.701 80.56C20.3588 83.0162 25.8661 82.9082 28.5098 80.5882C28.587 80.4995 28.681 80.427 28.7863 80.3752C28.8917 80.3233 29.0063 80.2929 29.1234 80.2859C29.2406 80.2789 29.3579 80.2954 29.4687 80.3344C29.5794 80.3734 29.6813 80.4341 29.7685 80.5131C33.5117 82.9129 37.2878 83.1336 41.0498 80.5506C41.5177 80.2266 41.8873 80.1327 42.3178 80.5506C44.8492 82.9833 50.4875 82.9363 53.1359 80.6352C53.217 80.5382 53.3169 80.4588 53.4294 80.4015C53.542 80.3443 53.6649 80.3105 53.7907 80.3022C53.9166 80.2939 54.0429 80.3112 54.1619 80.353C54.2809 80.3949 54.3903 80.4605 54.4835 80.5459C57.8945 82.9316 61.5021 82.9598 65.1565 81.1846C66.9673 80.3064 67.2153 79.5221 66.5602 77.5074C66.4854 77.5074 66.4011 77.4699 66.3403 77.5074C62.2695 79.3343 58.2268 79.6161 54.2121 77.3008C54.0627 77.2491 53.9041 77.2299 53.7468 77.2445C53.5895 77.2591 53.4371 77.3071 53.2997 77.3853C49.6874 79.4564 46.0845 79.4611 42.4301 77.4793C42.1907 77.3724 41.9317 77.3173 41.6697 77.3173C41.4078 77.3173 41.1488 77.3724 40.9094 77.4793C37.3346 79.4564 33.7831 79.3953 30.227 77.4793C29.9612 77.3122 29.6539 77.2236 29.3403 77.2236C29.0267 77.2236 28.7194 77.3122 28.4536 77.4793C24.949 79.4047 21.435 79.5033 17.9069 77.4793C17.6606 77.3227 17.375 77.2396 17.0834 77.2396C16.7918 77.2396 16.5062 77.3227 16.2599 77.4793C14.2104 78.5218 12.0487 79.3202 9.70914 78.8881C7.93108 78.55 6.14834 78.0475 4.32817 77.6154ZM17.0553 73.9477C21.1355 76.911 25.197 76.8593 29.221 73.9477C33.0766 76.8218 37.2223 76.8218 41.7142 73.9758C45.7757 76.9439 49.8371 76.8312 53.9033 73.9758C57.7401 77.0942 63.2942 76.4226 65.9753 74.5676C66.3599 74.3148 66.6407 73.9313 66.7661 73.4874C66.8433 72.7071 66.8558 71.9217 66.8035 71.1393C66.0128 71.468 65.3998 71.7263 64.7915 71.9752C61.7033 73.2244 58.6151 73.417 55.6252 71.7451C54.432 71.0735 53.3792 70.9749 52.2235 71.7686C51.679 72.0964 51.0916 72.3462 50.4782 72.5106C49.2845 72.902 48.0201 73.0274 46.7732 72.8781C45.5263 72.7289 44.3268 72.3086 43.2583 71.6465C42.8146 71.346 42.2931 71.1819 41.7579 71.1744C41.2227 71.1669 40.6969 71.3163 40.245 71.6042C39.5946 71.9721 38.9117 72.2787 38.2049 72.52C35.8653 73.3043 33.5772 72.9286 31.3734 71.8719C30.3159 71.3647 29.338 70.773 28.0559 71.5197C24.7478 73.4451 21.3929 73.3982 18.0941 71.4164C17.8042 71.2189 17.4619 71.1133 17.1115 71.1133C16.7611 71.1133 16.4188 71.2189 16.1289 71.4164C12.6523 73.4405 9.11021 73.3418 5.52134 71.6887C5.1283 71.5103 4.72589 71.36 4.31881 71.1956C3.72457 73.2808 4.02871 74.2764 5.67107 74.9902C9.60152 76.7138 13.4103 76.6574 17.0553 73.9477Z" fill="#FAD755"/>
<path d="M66.8269 4.28772V5.50406C66.8269 25.9423 66.8269 46.3836 66.8269 66.8281C66.8269 67.7439 66.5508 68.3074 65.7694 68.7066C61.6846 70.6697 57.726 70.5851 53.8798 67.9646C49.8885 70.7166 45.8505 70.8246 41.7141 67.9646C37.6106 70.8622 33.4134 70.6837 29.1835 67.9646C25.1782 70.7824 21.1401 70.8293 17.0178 67.9082C14.1729 70.2799 10.8601 70.3597 7.41632 69.6646C7.16179 69.6113 6.91155 69.5391 6.66766 69.4486C4.25325 68.5422 4.08948 68.3027 4.08948 65.7386V4.28772H66.8269ZM32.7443 11.4402C32.8145 11.6891 32.8426 11.8299 32.894 11.9614C33.249 12.7489 33.3677 13.6231 33.2356 14.4771C33.1034 15.3312 32.7262 16.1281 32.1501 16.7704C31.4575 17.6392 31.1768 18.8368 30.7463 19.8982C30.6181 20.2843 30.5134 20.678 30.4328 21.0769C28.5612 19.0763 27.4148 18.6396 25.6414 19.1984C26.9656 21.2131 26.8159 23.3734 26.2871 25.5807C26.114 26.3039 25.9736 27.0412 25.8707 27.7832C25.3607 31.4322 27.5505 35.4194 30.7463 36.6827C36.1366 38.8007 41.3351 36.1614 42.2616 30.5963C42.5189 28.7413 42.5047 26.8586 42.2195 25.0077C41.8779 22.3496 41.7843 19.8418 43.9086 17.6392C41.7282 17.2542 40.1279 18.184 38.5745 19.3769C38.2188 13.7601 37.0163 12.1117 32.7443 11.4402ZM46.2529 46.7985C44.8257 45.3191 43.3659 44.4785 41.3585 44.9199C42.7623 47.1131 42.43 49.3908 41.9528 51.753C41.6569 53.2144 41.5843 54.7124 41.7375 56.1957C42.1587 60.042 45.537 62.9255 49.7248 63.212C53.3791 63.4656 57.0476 60.8638 57.8243 57.1772C58.1743 55.3503 58.2563 53.4817 58.0676 51.6309C57.8196 48.8132 57.3143 46.0236 59.4245 43.6473C59.4526 43.6191 59.3965 43.5205 59.3637 43.403C57.3751 43.0602 55.8684 44.2061 54.3009 45.2252C53.9266 39.646 52.2468 37.3589 48.5269 37.3261C48.9948 38.6457 49.547 40.0499 48.6673 41.3132C47.5209 42.9522 46.5009 44.6147 46.2529 46.7985ZM11.0099 44.9199C12.0002 46.9013 12.2365 49.1773 11.6743 51.321C11.3534 52.7058 11.2119 54.1264 11.2532 55.5476C11.4357 59.7179 14.8888 62.9537 19.3106 63.2495C21.2286 63.3512 23.1186 62.753 24.6314 61.5652C26.1442 60.3775 27.1777 58.6804 27.5411 56.7874C27.8453 55.0952 27.9005 53.3674 27.7049 51.6591C27.3493 48.7474 26.8814 45.9109 29.3192 43.4171C27.0405 43.1072 25.4683 44.1591 23.8306 45.2956C23.8634 43.3044 24.0833 41.4259 22.8948 39.8339C21.7063 38.2418 20.1341 37.4857 18.0566 37.2932C19.0392 39.383 18.7585 41.0972 17.3454 42.7315C16.7839 43.3796 16.5406 44.3188 16.2084 45.1454C16.0211 45.7013 15.8649 46.2673 15.7404 46.8407C14.4256 45.2816 12.9657 44.5208 11.0099 44.9246V44.9199Z" fill="#138BCA"/>
<path d="M35.2476 91.0233C34.6019 90.236 33.7859 89.6069 32.8616 89.1837C31.9373 88.7606 30.929 88.5545 29.9134 88.5812C23.3065 88.5812 16.6996 88.564 10.0927 88.5296C9.42226 88.5228 8.75369 88.4568 8.09476 88.3323C5.3528 87.8111 4.25789 86.4538 4.22046 83.4106C4.68837 83.575 5.07673 83.6877 5.45106 83.8803C9.19434 85.6649 12.8487 85.6461 16.5078 83.6549C16.9378 83.5121 17.4037 83.522 17.8273 83.683C19.465 84.1527 21.0512 84.8618 22.7123 85.1295C24.6822 85.4441 26.5304 84.6599 28.2898 83.791C28.5881 83.6244 28.9209 83.5296 29.2619 83.5141C29.6029 83.4987 29.9429 83.5629 30.255 83.7018C31.8774 84.3291 33.5553 84.8008 35.2663 85.1107C37.269 85.4629 39.0611 84.5284 40.8157 83.7018C41.1035 83.5426 41.428 83.4623 41.7566 83.4689C42.0851 83.4755 42.4061 83.5688 42.6874 83.7394C46.1686 85.6179 49.6545 85.6461 53.1452 83.7018C53.3445 83.5944 53.5641 83.5301 53.7898 83.5131C54.0155 83.4961 54.2422 83.5268 54.4553 83.6032C58.2641 85.7118 62.0822 85.6038 65.9378 83.7816C66.1071 83.7036 66.2824 83.6392 66.4619 83.5891C66.5345 83.5753 66.6091 83.5753 66.6818 83.5891C66.9672 85.9138 65.7085 87.7218 63.3596 88.2572C62.5919 88.4323 61.8074 88.522 61.0201 88.5249C54.226 88.5593 47.4304 88.575 40.6332 88.5719C38.5042 88.5766 36.5811 89.0321 35.2476 91.0233Z" fill="#67392B"/>
<path d="M4.3281 77.6155C6.14827 78.0475 7.93101 78.5547 9.7465 78.8882C12.086 79.3296 14.2478 78.5312 16.2972 77.4793C16.5436 77.3227 16.8292 77.2396 17.1208 77.2396C17.4123 77.2396 17.6979 77.3227 17.9443 77.4793C21.4583 79.4987 24.9863 79.4 28.491 77.4793C28.7568 77.3122 29.0641 77.2236 29.3777 77.2236C29.6913 77.2236 29.9986 77.3122 30.2644 77.4793C33.8205 79.3813 37.3719 79.4423 40.9467 77.4793C41.1861 77.3725 41.4451 77.3173 41.7071 77.3173C41.9691 77.3173 42.2281 77.3725 42.4675 77.4793C46.1218 79.4611 49.7247 79.4564 53.337 77.3853C53.4744 77.3071 53.6268 77.2591 53.7842 77.2445C53.9415 77.23 54.1001 77.2491 54.2494 77.3008C58.2641 79.6161 62.3069 79.3343 66.3777 77.5074C66.4385 77.4793 66.5227 77.5074 66.5976 77.5074C67.2293 79.5221 66.9813 80.3252 65.1939 81.1846C61.5348 82.9598 57.9319 82.9316 54.5208 80.5459C54.4277 80.4605 54.3183 80.3949 54.1993 80.3531C54.0802 80.3112 53.954 80.2939 53.8281 80.3022C53.7022 80.3106 53.5793 80.3443 53.4668 80.4016C53.3542 80.4588 53.2544 80.5382 53.1732 80.6352C50.5249 82.9363 44.8866 82.9833 42.3552 80.5506C41.9247 80.1374 41.555 80.2313 41.0871 80.5506C37.3438 83.1336 33.5444 82.8988 29.8058 80.5131C29.7187 80.4341 29.6168 80.3734 29.506 80.3344C29.3953 80.2954 29.2779 80.279 29.1608 80.286C29.0436 80.2929 28.929 80.3233 28.8237 80.3752C28.7183 80.4271 28.6243 80.4995 28.5471 80.5882C25.9034 82.9364 20.3961 83.0162 17.7384 80.56C17.2705 80.1233 16.8541 80.1937 16.3768 80.607C13.6068 83.0068 7.92165 82.9551 4.83344 80.6399C4.00992 80.0434 3.83211 78.8553 4.3281 77.6155Z" fill="#4DAB63"/>
<path d="M17.0552 73.9477C13.4149 76.6574 9.60611 76.7138 5.67567 75.0043C4.0333 74.2905 3.72916 73.2949 4.32341 71.2097C4.73049 71.3741 5.13289 71.5244 5.52593 71.7028C9.10077 73.3559 12.6522 73.4546 16.1194 71.4305C16.4094 71.233 16.7517 71.1274 17.102 71.1274C17.4524 71.1274 17.7947 71.233 18.0846 71.4305C21.3834 73.4311 24.7383 73.4593 28.0465 71.5338C29.3285 70.7871 30.3065 71.3788 31.3639 71.886C33.5678 72.9427 35.8372 73.3184 38.1954 72.5341C38.9022 72.2928 39.5852 71.9862 40.2355 71.6183C40.6874 71.3304 41.2132 71.181 41.7485 71.1885C42.2837 71.196 42.8051 71.3601 43.2489 71.6606C44.3171 72.3212 45.516 72.7403 46.762 72.8888C48.0081 73.0372 49.2714 72.9113 50.464 72.52C51.0774 72.3556 51.6649 72.1058 52.2093 71.778C53.3651 70.9843 54.4179 71.0829 55.611 71.7545C58.601 73.4264 61.6939 73.2338 64.7774 71.9846C65.3904 71.7357 65.9987 71.4774 66.7894 71.1487C66.8417 71.9311 66.8292 72.7165 66.752 73.4968C66.6266 73.9407 66.3458 74.3242 65.9612 74.577C63.2801 76.432 57.726 77.1036 53.8891 73.9852C49.823 76.8359 45.7615 76.9486 41.7235 73.9852C37.2315 76.8312 33.0858 76.8312 29.2303 73.9571C25.1922 76.8594 21.1307 76.911 17.0552 73.9477Z" fill="#4EAB63"/>
<path d="M32.7443 11.4402C37.0163 12.1117 38.2189 13.7601 38.5745 19.3769C40.1279 18.184 41.7282 17.2542 43.9087 17.6392C41.7843 19.8418 41.8779 22.3355 42.2195 25.0077C42.5047 26.8586 42.5189 28.7413 42.2616 30.5963C41.3258 36.1379 36.1367 38.8007 30.737 36.6639C27.5412 35.4006 25.3513 31.4134 25.8614 27.7644C25.9643 27.0224 26.1047 26.2851 26.2778 25.5619C26.8065 23.3546 26.9563 21.1943 25.6321 19.1796C27.4055 18.6396 28.5378 19.0763 30.4235 21.0581C30.5041 20.6592 30.6087 20.2655 30.737 19.8794C31.1768 18.818 31.4576 17.6205 32.1407 16.7516C32.7169 16.1093 33.0941 15.3124 33.2262 14.4584C33.3583 13.6043 33.2397 12.7301 32.8847 11.9427C32.8426 11.8299 32.8145 11.6891 32.7443 11.4402ZM36.0899 34.9216C37.4515 34.5834 38.2235 33.5831 38.7382 32.395C39.6741 30.1736 39.3325 27.9945 38.3546 25.8765C37.0865 23.1245 35.5752 20.4335 36.642 17.226C34.6206 17.0381 32.487 18.7194 32.1033 20.7529C31.7196 22.7864 31.4061 24.9232 31.0224 27.2525C31.4248 26.9379 31.8553 26.7829 31.9582 26.4823C32.4438 25.328 32.835 24.1359 33.128 22.9179C33.4134 21.509 33.7737 20.241 34.9669 19.3158C34.499 21.9504 35.4348 24.1107 36.8385 26.2287C37.4047 27.0976 37.5217 28.2528 37.8445 29.2813L37.4983 29.4504C36.6794 27.7738 35.2008 27.1023 33.5585 26.6326C33.3152 28.6145 33.7784 28.652 31.9114 30.6996C31.5096 31.178 31.2707 31.7728 31.2295 32.3971C31.1882 33.0215 31.3468 33.6427 31.6822 34.1702C32.2624 35.0671 33.0859 35.4475 34.4335 35.3677C33.2871 34.3862 32.632 33.4281 33.1186 32.1601C33.5866 30.9626 34.1714 29.812 34.7095 28.6473C35.2163 28.96 35.631 29.4022 35.9114 29.9287C36.1918 30.4552 36.3277 31.047 36.3051 31.6436C36.3051 32.7472 36.1788 33.8508 36.1086 34.931H35.9729C35.9729 34.931 36.0244 34.9685 36.029 34.9638C36.0501 34.958 36.0704 34.9502 36.0899 34.9403V34.9216Z" fill="#F6D658"/>
<path d="M46.2529 46.7985C46.5009 44.6053 47.5209 42.9522 48.6673 41.3179C49.5469 40.0546 48.9855 38.6504 48.5269 37.3307C52.2468 37.3636 53.9266 39.6507 54.3009 45.2299C55.8684 44.2108 57.3751 43.0649 59.3637 43.4077C59.3965 43.5251 59.4526 43.6238 59.4245 43.6519C57.3143 46.0424 57.8196 48.8179 58.0676 51.6356C58.2563 53.4864 58.1743 55.3549 57.8243 57.1819C57.0475 60.8685 53.3791 63.4703 49.7248 63.2167C45.537 62.9302 42.1586 60.0467 41.7375 56.2004C41.5843 54.7171 41.6569 53.2191 41.9528 51.7577C42.4207 49.4096 42.7623 47.1178 41.3585 44.9246C43.3659 44.4785 44.8257 45.3191 46.2529 46.7985ZM52.3965 42.9475C50.5764 42.5577 48.1105 44.7931 47.8063 46.7045C47.4694 48.7803 47.1512 50.8654 46.8097 53.068C47.0389 52.9036 47.3524 52.8003 47.446 52.5984C48.0059 51.4844 48.4753 50.3269 48.8498 49.1372C49.2381 47.6814 49.2849 46.1081 50.9694 44.9575C50.2348 47.888 51.2595 50.0718 52.7287 52.2133C53.2528 52.9741 53.2809 54.0918 53.5382 55.031C52.0783 54.026 50.8056 53.1525 49.5329 52.2602L49.2007 52.4716C49.4908 54.1294 48.6439 55.2612 47.7268 56.454C47.2611 57.1638 47.0363 58.0055 47.0857 58.8538C47.0776 59.2126 47.1575 59.5679 47.3184 59.8884C47.4793 60.2089 47.7163 60.4848 48.0084 60.6917C48.3006 60.8987 48.639 61.0303 48.9937 61.0751C49.3485 61.1198 49.7088 61.0763 50.0429 60.9483C48.8685 60.0373 48.4567 59.0698 48.9012 57.9568C49.3457 56.8438 49.926 55.6697 50.5062 54.4017C52.6773 56.2051 52.1439 58.511 51.7181 60.892C52.5271 60.5598 53.2415 60.0317 53.7975 59.3548C54.3536 58.6779 54.7339 57.8733 54.9045 57.0129C55.4145 54.7352 54.6238 52.7158 53.6412 50.7574C52.4199 48.2872 51.5122 45.7934 52.3965 42.9475Z" fill="#F6D658"/>
<path d="M11.0099 44.9246C12.9658 44.5208 14.4256 45.2816 15.7451 46.8032C15.8696 46.2297 16.0258 45.6637 16.2131 45.1078C16.5453 44.2813 16.7886 43.342 17.3501 42.6939C18.7538 41.0596 19.0439 39.3455 18.0613 37.2556C20.1388 37.4576 21.7297 38.2371 22.8995 39.7963C24.0693 41.3555 23.8727 43.2669 23.8353 45.2581C25.473 44.1451 27.0452 43.0931 29.3239 43.3796C26.8814 45.9109 27.3493 48.7474 27.7049 51.6591C27.9009 53.3689 27.8458 55.0984 27.5412 56.7921C27.1778 58.6851 26.1442 60.3821 24.6314 61.5699C23.1186 62.7577 21.2287 63.3559 19.3106 63.2542C14.8889 62.9302 11.4404 59.7038 11.2532 55.5335C11.2119 54.1123 11.3534 52.6917 11.6743 51.3069C12.2318 49.169 11.9956 46.9007 11.0099 44.9246ZM20.0873 54.4158C22.352 56.1957 21.6548 58.5345 21.346 60.9014C23.2972 59.9105 24.3687 58.464 24.6214 56.4024C24.7688 54.7095 24.4156 53.0106 23.606 51.5182C22.2818 48.8132 20.9857 46.1128 22.0572 42.755C21.5158 42.8234 20.9818 42.9413 20.4617 43.1072C19.6139 43.4694 18.8778 44.0521 18.3292 44.795C17.7806 45.538 17.4394 46.4144 17.3407 47.3338C17.0319 49.2781 16.695 51.213 16.3581 53.2183C16.5419 53.0905 16.7184 52.9526 16.8868 52.805C18.1408 51.5699 18.4497 49.9872 18.6321 48.3013C18.6832 47.6422 18.8772 47.0023 19.2005 46.4263C19.5238 45.8503 19.9686 45.3523 20.5038 44.9669C19.816 47.7847 20.8454 49.8933 22.2397 51.9832C22.8293 52.8661 22.9182 54.0871 23.227 55.1344L19.1235 52.2039L18.8474 52.4293C19.0439 54.0683 18.4169 55.3222 17.3314 56.4916C16.8634 56.9612 16.7278 57.8535 16.681 58.5673C16.5827 59.8964 18.0847 61.7091 19.6803 60.9765C18.2017 59.7696 18.0379 58.8209 18.9316 57.088C19.3106 56.2896 19.6335 55.4537 20.0873 54.4158Z" fill="#F6D658"/>
<path d="M36.1085 34.9685C36.1787 33.8602 36.291 32.7566 36.305 31.6529C36.3293 31.0548 36.1942 30.461 35.9138 29.9327C35.6333 29.4044 35.2176 28.9607 34.7095 28.6473C34.1714 29.8167 33.5818 30.9626 33.1186 32.1601C32.6507 33.4281 33.287 34.3862 34.4334 35.3677C33.0999 35.4475 32.2623 35.0671 31.6821 34.1701C31.3468 33.6427 31.1881 33.0214 31.2294 32.3971C31.2706 31.7728 31.5096 31.178 31.9114 30.6996C33.783 28.652 33.3151 28.6144 33.5584 26.6326C35.2008 27.1022 36.6794 27.7832 37.4982 29.4504L37.8445 29.2813C37.5216 28.2528 37.4046 27.0975 36.8385 26.2287C35.4675 24.1107 34.4989 21.9504 34.9668 19.3158C33.7737 20.2551 33.4134 21.5277 33.1279 22.9178C32.835 24.1359 32.4437 25.328 31.9582 26.4823C31.8459 26.7735 31.4154 26.952 31.0223 27.2525C31.406 24.9044 31.7102 22.8286 32.1032 20.7529C32.4963 18.6771 34.6206 17.0381 36.6419 17.226C35.5751 20.4335 37.1099 23.1245 38.3545 25.8765C39.3324 27.9945 39.688 30.1736 38.7382 32.3949C38.2235 33.5831 37.4514 34.5834 36.0898 34.9215L36.1085 34.9685Z" fill="#1C8DC4"/>
<path d="M36.0899 34.9403C36.0734 34.9682 36.0529 34.9935 36.0291 35.0154C36.0291 35.0154 35.9916 35.0154 35.9729 34.9826H36.1086L36.0899 34.9403Z" fill="#1C8DC4"/>
<path d="M52.3966 42.9475C51.5122 45.7934 52.3966 48.2871 53.6506 50.748C54.6332 52.7063 55.424 54.7257 54.9139 57.0034C54.7433 57.8639 54.363 58.6685 53.8069 59.3454C53.2509 60.0223 52.5365 60.5504 51.7275 60.8826C52.1533 58.5016 52.6867 56.1863 50.5156 54.3923C49.9354 55.6603 49.3692 56.7827 48.9107 57.9474C48.4521 59.1121 48.8779 60.0278 50.0523 60.9389C49.7183 61.0669 49.358 61.1104 49.0032 61.0656C48.6484 61.0209 48.31 60.8892 48.0178 60.6823C47.7257 60.4754 47.4887 60.1995 47.3278 59.879C47.1669 59.5585 47.087 59.2032 47.0952 58.8444C47.0457 57.996 47.2706 57.1543 47.7362 56.4446C48.672 55.2517 49.5002 54.0964 49.2101 52.4621L49.5423 52.2508C50.815 53.1337 52.0878 54.0166 53.5476 55.0216C53.2903 54.0542 53.2622 52.9459 52.7382 52.2038C51.2689 50.0623 50.2442 47.8786 50.9788 44.9481C49.2943 46.0987 49.2475 47.6719 48.8592 49.1278C48.4847 50.3175 48.0153 51.475 47.4554 52.5889C47.3619 52.7956 47.0484 52.8989 46.8191 53.0586C47.1607 50.856 47.4788 48.7709 47.8157 46.6951C48.1105 44.7931 50.5764 42.5577 52.3966 42.9475Z" fill="#1C8DC4"/>
<path d="M20.0873 54.4158C19.6194 55.4537 19.3105 56.2943 18.9035 57.0786C18.0098 58.8115 18.1735 59.7602 19.6521 60.9671C18.0425 61.6997 16.5546 59.887 16.6528 58.5579C16.6996 57.8441 16.8493 56.9659 17.3032 56.4822C18.3888 55.3128 19.0158 54.0589 18.8192 52.4199L19.0953 52.1945L23.1989 55.1249C22.8901 54.0777 22.8012 52.8566 22.2116 51.9737C20.8079 49.8839 19.7878 47.7753 20.4756 44.9575C19.9405 45.3428 19.4956 45.8409 19.1724 46.4169C18.8491 46.9928 18.6551 47.6328 18.604 48.2918C18.4215 49.959 18.1361 51.5792 16.8587 52.7956C16.6903 52.9431 16.5138 53.0811 16.33 53.2089C16.6669 51.2035 17.0037 49.2687 17.3126 47.3244C17.4112 46.405 17.7524 45.5286 18.3011 44.7856C18.8497 44.0427 19.5858 43.46 20.4335 43.0978C20.9609 42.9273 21.5029 42.8062 22.0525 42.7361C20.981 46.094 22.2771 48.7943 23.6013 51.4994C24.4092 52.9923 24.7608 54.6912 24.612 56.3835C24.3687 58.4452 23.2971 59.8917 21.3366 60.8826C21.6548 58.5344 22.352 56.1957 20.0873 54.4158Z" fill="#1D8DC4"/>
<path d="M15.7525 108V102.182H17.8832C18.296 102.182 18.6379 102.25 18.9087 102.386C19.1796 102.521 19.3822 102.704 19.5167 102.935C19.6512 103.164 19.7184 103.422 19.7184 103.71C19.7184 103.953 19.6739 104.157 19.5849 104.324C19.4959 104.489 19.3765 104.621 19.2269 104.722C19.0792 104.82 18.9163 104.892 18.7383 104.938V104.994C18.9315 105.004 19.1199 105.066 19.3036 105.182C19.4892 105.295 19.6426 105.457 19.7638 105.668C19.8851 105.878 19.9457 106.134 19.9457 106.435C19.9457 106.732 19.8756 106.999 19.7354 107.236C19.5972 107.471 19.3832 107.657 19.0934 107.795C18.8036 107.932 18.4334 108 17.9826 108H15.7525ZM16.6303 107.247H17.8974C18.3178 107.247 18.619 107.166 18.8008 107.003C18.9826 106.84 19.0735 106.636 19.0735 106.392C19.0735 106.208 19.0271 106.04 18.9343 105.886C18.8415 105.733 18.7089 105.611 18.5366 105.52C18.3661 105.429 18.1635 105.384 17.9286 105.384H16.6303V107.247ZM16.6303 104.699H17.8065C18.0034 104.699 18.1805 104.661 18.3377 104.585C18.4968 104.509 18.6228 104.403 18.7156 104.267C18.8103 104.129 18.8576 103.966 18.8576 103.778C18.8576 103.538 18.7733 103.336 18.6048 103.173C18.4362 103.01 18.1777 102.929 17.8292 102.929H16.6303V104.699ZM22.1886 108.097C21.9121 108.097 21.6621 108.045 21.4386 107.943C21.2151 107.839 21.038 107.688 20.9073 107.491C20.7785 107.295 20.7141 107.053 20.7141 106.767C20.7141 106.521 20.7615 106.318 20.8562 106.159C20.9509 106 21.0787 105.874 21.2397 105.781C21.4007 105.688 21.5806 105.618 21.7795 105.571C21.9783 105.524 22.181 105.488 22.3874 105.463C22.6488 105.433 22.8609 105.408 23.0238 105.389C23.1867 105.368 23.305 105.335 23.3789 105.29C23.4528 105.244 23.4897 105.17 23.4897 105.068V105.048C23.4897 104.8 23.4196 104.608 23.2795 104.472C23.1412 104.335 22.9348 104.267 22.6602 104.267C22.3742 104.267 22.1488 104.33 21.984 104.457C21.8211 104.582 21.7085 104.722 21.646 104.875L20.8477 104.693C20.9424 104.428 21.0806 104.214 21.2624 104.051C21.4461 103.886 21.6573 103.767 21.896 103.693C22.1346 103.617 22.3855 103.58 22.6488 103.58C22.823 103.58 23.0077 103.6 23.2028 103.642C23.3997 103.682 23.5835 103.756 23.7539 103.864C23.9263 103.972 24.0674 104.126 24.1772 104.327C24.2871 104.526 24.342 104.784 24.342 105.102V108H23.5124V107.403H23.4783C23.4234 107.513 23.341 107.621 23.2312 107.727C23.1213 107.833 22.9802 107.921 22.8079 107.991C22.6355 108.062 22.4291 108.097 22.1886 108.097ZM22.3732 107.415C22.6081 107.415 22.8088 107.368 22.9755 107.276C23.1441 107.183 23.2719 107.062 23.359 106.912C23.448 106.76 23.4925 106.598 23.4925 106.426V105.864C23.4622 105.894 23.4035 105.922 23.3164 105.949C23.2312 105.973 23.1336 105.995 23.0238 106.014C22.9139 106.031 22.8069 106.047 22.7028 106.062C22.5986 106.076 22.5115 106.087 22.4414 106.097C22.2766 106.117 22.1261 106.152 21.9897 106.202C21.8552 106.251 21.7473 106.322 21.6658 106.415C21.5863 106.506 21.5465 106.627 21.5465 106.778C21.5465 106.989 21.6242 107.148 21.7795 107.256C21.9348 107.362 22.1327 107.415 22.3732 107.415ZM26.2546 106.52L26.2489 105.483H26.3967L28.1353 103.636H29.1523L27.1694 105.739H27.0359L26.2546 106.52ZM25.4734 108V102.182H26.3228V108H25.4734ZM28.229 108L26.6665 105.926L27.2518 105.332L29.2717 108H28.229ZM29.9265 108V103.636H30.7759V108H29.9265ZM37.2773 103.71C37.247 103.441 37.122 103.233 36.9023 103.085C36.6826 102.936 36.4061 102.861 36.0728 102.861C35.8342 102.861 35.6277 102.899 35.4535 102.974C35.2792 103.048 35.1438 103.151 35.0472 103.281C34.9525 103.41 34.9052 103.557 34.9052 103.722C34.9052 103.86 34.9374 103.979 35.0018 104.08C35.0681 104.18 35.1542 104.264 35.2603 104.332C35.3683 104.399 35.4838 104.455 35.6069 104.5C35.73 104.544 35.8484 104.58 35.962 104.608L36.5302 104.756C36.7158 104.801 36.9061 104.863 37.1012 104.94C37.2963 105.018 37.4772 105.12 37.6438 105.247C37.8105 105.374 37.945 105.531 38.0472 105.719C38.1514 105.906 38.2035 106.131 38.2035 106.392C38.2035 106.722 38.1183 107.014 37.9478 107.27C37.7792 107.526 37.534 107.727 37.212 107.875C36.8919 108.023 36.5046 108.097 36.0501 108.097C35.6145 108.097 35.2376 108.027 34.9194 107.889C34.6012 107.751 34.3522 107.555 34.1722 107.301C33.9923 107.045 33.8929 106.742 33.8739 106.392H34.7546C34.7717 106.602 34.8398 106.777 34.9592 106.918C35.0804 107.056 35.2347 107.159 35.4222 107.227C35.6116 107.294 35.819 107.327 36.0444 107.327C36.2925 107.327 36.5131 107.288 36.7063 107.21C36.9014 107.131 37.0548 107.021 37.1665 106.881C37.2783 106.739 37.3342 106.573 37.3342 106.384C37.3342 106.211 37.2849 106.07 37.1864 105.96C37.0898 105.85 36.9582 105.759 36.7915 105.688C36.6268 105.616 36.4402 105.552 36.2319 105.497L35.5444 105.31C35.0785 105.183 34.7092 104.996 34.4364 104.75C34.1656 104.504 34.0302 104.178 34.0302 103.773C34.0302 103.437 34.1211 103.145 34.3029 102.895C34.4847 102.645 34.7309 102.451 35.0415 102.312C35.3522 102.172 35.7025 102.102 36.0927 102.102C36.4866 102.102 36.8342 102.171 37.1353 102.31C37.4383 102.448 37.677 102.638 37.8512 102.881C38.0255 103.121 38.1164 103.398 38.1239 103.71H37.2773ZM35.7546 107.977H36.3114L36.266 108.21C36.4308 108.237 36.5747 108.303 36.6978 108.409C36.8209 108.515 36.8825 108.675 36.8825 108.889C36.8844 109.145 36.7736 109.352 36.5501 109.511C36.3285 109.67 36.0075 109.75 35.587 109.75L35.57 109.276C35.7669 109.276 35.926 109.247 36.0472 109.19C36.1703 109.134 36.2328 109.042 36.2347 108.915C36.2366 108.788 36.1893 108.699 36.0927 108.648C35.998 108.597 35.8465 108.561 35.6381 108.54L35.7546 107.977ZM40.8604 103.548C41.2904 103.548 41.6606 103.641 41.9712 103.827C42.2818 104.01 42.5205 104.271 42.6871 104.608C42.8538 104.943 42.9371 105.337 42.9371 105.79C42.9371 106.237 42.8538 106.631 42.6871 106.972C42.5205 107.312 42.2856 107.579 41.9826 107.77C41.6815 107.961 41.3282 108.057 40.9229 108.057C40.6748 108.057 40.4353 108.016 40.2042 107.935C39.9731 107.853 39.7657 107.725 39.582 107.551C39.4002 107.377 39.2553 107.151 39.1474 106.872C39.0413 106.594 38.9883 106.258 38.9883 105.864V105.562H42.4599V106.199H39.8235C39.8235 106.422 39.868 106.621 39.957 106.795C40.0479 106.968 40.1748 107.104 40.3377 107.205C40.5025 107.305 40.6947 107.355 40.9144 107.355C41.1568 107.355 41.3652 107.297 41.5394 107.182C41.7156 107.064 41.8519 106.912 41.9485 106.724C42.0451 106.537 42.0934 106.335 42.0934 106.119V105.622C42.0934 105.329 42.0413 105.08 41.9371 104.878C41.8349 104.673 41.6909 104.518 41.5053 104.412C41.3197 104.304 41.1029 104.25 40.8548 104.25C40.6938 104.25 40.546 104.274 40.4116 104.321C40.279 104.366 40.1644 104.436 40.0678 104.528C39.9731 104.619 39.8993 104.734 39.8462 104.872L39.0423 104.727C39.1067 104.491 39.2212 104.284 39.386 104.108C39.5527 103.93 39.761 103.793 40.011 103.696C40.261 103.598 40.5442 103.548 40.8604 103.548ZM44.729 105.409V108H43.8796V102.182H44.7177V104.347H44.7717C44.8739 104.112 45.0302 103.925 45.2404 103.787C45.4506 103.649 45.7253 103.58 46.0643 103.58C46.3635 103.58 46.6249 103.641 46.8484 103.764C47.0737 103.887 47.248 104.071 47.3711 104.315C47.4961 104.558 47.5586 104.861 47.5586 105.224V108H46.7092V105.327C46.7092 105.007 46.6268 104.759 46.462 104.582C46.2972 104.404 46.0681 104.315 45.7745 104.315C45.5737 104.315 45.3938 104.358 45.2347 104.443C45.0775 104.528 44.9535 104.653 44.8626 104.818C44.7736 104.981 44.729 105.178 44.729 105.409ZM50.3683 103.548C50.7982 103.548 51.1684 103.641 51.479 103.827C51.7897 104.01 52.0283 104.271 52.195 104.608C52.3616 104.943 52.445 105.337 52.445 105.79C52.445 106.237 52.3616 106.631 52.195 106.972C52.0283 107.312 51.7934 107.579 51.4904 107.77C51.1893 107.961 50.8361 108.057 50.4308 108.057C50.1826 108.057 49.9431 108.016 49.712 107.935C49.4809 107.853 49.2736 107.725 49.0898 107.551C48.908 107.377 48.7631 107.151 48.6552 106.872C48.5491 106.594 48.4961 106.258 48.4961 105.864V105.562H51.9677V106.199H49.3313C49.3313 106.422 49.3758 106.621 49.4648 106.795C49.5558 106.968 49.6826 107.104 49.8455 107.205C50.0103 107.305 50.2025 107.355 50.4222 107.355C50.6647 107.355 50.873 107.297 51.0472 107.182C51.2234 107.064 51.3597 106.912 51.4563 106.724C51.5529 106.537 51.6012 106.335 51.6012 106.119V105.622C51.6012 105.329 51.5491 105.08 51.445 104.878C51.3427 104.673 51.1987 104.518 51.0131 104.412C50.8275 104.304 50.6107 104.25 50.3626 104.25C50.2016 104.25 50.0539 104.274 49.9194 104.321C49.7868 104.366 49.6722 104.436 49.5756 104.528C49.4809 104.619 49.4071 104.734 49.354 104.872L48.5501 104.727C48.6145 104.491 48.729 104.284 48.8938 104.108C49.0605 103.93 49.2688 103.793 49.5188 103.696C49.7688 103.598 50.052 103.548 50.3683 103.548ZM53.3874 108V103.636H54.2085V104.33H54.2539C54.3335 104.095 54.4736 103.91 54.6744 103.776C54.877 103.639 55.1062 103.571 55.3619 103.571C55.4149 103.571 55.4774 103.573 55.5494 103.577C55.6232 103.58 55.681 103.585 55.7227 103.591V104.403C55.6886 104.394 55.628 104.384 55.5408 104.372C55.4537 104.359 55.3666 104.352 55.2795 104.352C55.0787 104.352 54.8997 104.395 54.7425 104.48C54.5872 104.563 54.4641 104.68 54.3732 104.83C54.2823 104.977 54.2369 105.146 54.2369 105.335V108H53.3874ZM6.52876 114.182V120H5.65092V114.182H6.52876ZM6.09126 113.509C5.94354 113.509 5.81664 113.459 5.71058 113.361C5.60642 113.26 5.55433 113.141 5.55433 113.003C5.55433 112.863 5.60642 112.743 5.71058 112.645C5.81664 112.545 5.94354 112.494 6.09126 112.494C6.23899 112.494 6.36494 112.545 6.46911 112.645C6.57517 112.743 6.6282 112.863 6.6282 113.003C6.6282 113.141 6.57517 113.26 6.46911 113.361C6.36494 113.459 6.23899 113.509 6.09126 113.509ZM9.57706 120.088C9.15471 120.088 8.79107 119.992 8.48615 119.801C8.18312 119.608 7.95017 119.342 7.78729 119.003C7.62441 118.664 7.54297 118.276 7.54297 117.838C7.54297 117.395 7.6263 117.004 7.79297 116.665C7.95964 116.324 8.19448 116.058 8.49751 115.866C8.80054 115.675 9.15755 115.58 9.56854 115.58C9.89998 115.58 10.1954 115.641 10.4549 115.764C10.7144 115.885 10.9237 116.056 11.0827 116.276C11.2437 116.495 11.3394 116.752 11.3697 117.045H10.543C10.4975 116.841 10.3933 116.665 10.2305 116.517C10.0695 116.369 9.85357 116.295 9.58274 116.295C9.346 116.295 9.13861 116.358 8.96058 116.483C8.78445 116.606 8.64714 116.782 8.54865 117.011C8.45017 117.239 8.40092 117.508 8.40092 117.818C8.40092 118.136 8.44922 118.411 8.54581 118.642C8.6424 118.873 8.77876 119.052 8.9549 119.179C9.13293 119.306 9.34221 119.369 9.58274 119.369C9.74373 119.369 9.88956 119.34 10.0202 119.281C10.1528 119.221 10.2636 119.134 10.3526 119.023C10.4435 118.911 10.507 118.777 10.543 118.619H11.3697C11.3394 118.902 11.2475 119.153 11.0941 119.375C10.9407 119.597 10.7352 119.771 10.4776 119.898C10.2219 120.025 9.92176 120.088 9.57706 120.088ZM12.2781 120V115.636H13.0991V116.33H13.1445C13.2241 116.095 13.3642 115.91 13.565 115.776C13.7676 115.639 13.9968 115.571 14.2525 115.571C14.3055 115.571 14.368 115.573 14.44 115.577C14.5138 115.58 14.5716 115.585 14.6133 115.591V116.403C14.5792 116.394 14.5186 116.384 14.4315 116.372C14.3443 116.359 14.2572 116.352 14.1701 116.352C13.9693 116.352 13.7904 116.395 13.6332 116.48C13.4779 116.563 13.3548 116.68 13.2638 116.83C13.1729 116.977 13.1275 117.146 13.1275 117.335V120H12.2781ZM16.5792 120.097C16.3027 120.097 16.0527 120.045 15.8292 119.943C15.6057 119.839 15.4286 119.688 15.2979 119.491C15.1692 119.295 15.1048 119.053 15.1048 118.767C15.1048 118.521 15.1521 118.318 15.2468 118.159C15.3415 118 15.4693 117.874 15.6303 117.781C15.7913 117.688 15.9712 117.618 16.1701 117.571C16.369 117.524 16.5716 117.488 16.7781 117.463C17.0394 117.433 17.2515 117.408 17.4144 117.389C17.5773 117.368 17.6957 117.335 17.7695 117.29C17.8434 117.244 17.8803 117.17 17.8803 117.068V117.048C17.8803 116.8 17.8103 116.608 17.6701 116.472C17.5318 116.335 17.3254 116.267 17.0508 116.267C16.7648 116.267 16.5394 116.33 16.3746 116.457C16.2118 116.582 16.0991 116.722 16.0366 116.875L15.2383 116.693C15.333 116.428 15.4712 116.214 15.6531 116.051C15.8368 115.886 16.0479 115.767 16.2866 115.693C16.5252 115.617 16.7762 115.58 17.0394 115.58C17.2137 115.58 17.3983 115.6 17.5934 115.642C17.7904 115.682 17.9741 115.756 18.1445 115.864C18.3169 115.972 18.458 116.126 18.5678 116.327C18.6777 116.526 18.7326 116.784 18.7326 117.102V120H17.9031V119.403H17.869C17.814 119.513 17.7317 119.621 17.6218 119.727C17.512 119.833 17.3709 119.921 17.1985 119.991C17.0262 120.062 16.8197 120.097 16.5792 120.097ZM16.7638 119.415C16.9987 119.415 17.1995 119.368 17.3661 119.276C17.5347 119.183 17.6625 119.062 17.7496 118.912C17.8387 118.76 17.8832 118.598 17.8832 118.426V117.864C17.8529 117.894 17.7942 117.922 17.707 117.949C17.6218 117.973 17.5243 117.995 17.4144 118.014C17.3046 118.031 17.1976 118.047 17.0934 118.062C16.9892 118.076 16.9021 118.087 16.832 118.097C16.6673 118.117 16.5167 118.152 16.3803 118.202C16.2459 118.251 16.1379 118.322 16.0565 118.415C15.9769 118.506 15.9371 118.627 15.9371 118.778C15.9371 118.989 16.0148 119.148 16.1701 119.256C16.3254 119.362 16.5233 119.415 16.7638 119.415ZM22.0494 120V114.182H22.9272V116.71H25.8278V114.182H26.7085V120H25.8278V117.463H22.9272V120H22.0494ZM29.1886 120.097C28.9121 120.097 28.6621 120.045 28.4386 119.943C28.2151 119.839 28.038 119.688 27.9073 119.491C27.7785 119.295 27.7141 119.053 27.7141 118.767C27.7141 118.521 27.7615 118.318 27.8562 118.159C27.9509 118 28.0787 117.874 28.2397 117.781C28.4007 117.688 28.5806 117.618 28.7795 117.571C28.9783 117.524 29.181 117.488 29.3874 117.463C29.6488 117.433 29.8609 117.408 30.0238 117.389C30.1867 117.368 30.305 117.335 30.3789 117.29C30.4528 117.244 30.4897 117.17 30.4897 117.068V117.048C30.4897 116.8 30.4196 116.608 30.2795 116.472C30.1412 116.335 29.9348 116.267 29.6602 116.267C29.3742 116.267 29.1488 116.33 28.984 116.457C28.8211 116.582 28.7085 116.722 28.646 116.875L27.8477 116.693C27.9424 116.428 28.0806 116.214 28.2624 116.051C28.4461 115.886 28.6573 115.767 28.896 115.693C29.1346 115.617 29.3855 115.58 29.6488 115.58C29.823 115.58 30.0077 115.6 30.2028 115.642C30.3997 115.682 30.5835 115.756 30.7539 115.864C30.9263 115.972 31.0674 116.126 31.1772 116.327C31.2871 116.526 31.342 116.784 31.342 117.102V120H30.5124V119.403H30.4783C30.4234 119.513 30.341 119.621 30.2312 119.727C30.1213 119.833 29.9802 119.921 29.8079 119.991C29.6355 120.062 29.4291 120.097 29.1886 120.097ZM29.3732 119.415C29.6081 119.415 29.8088 119.368 29.9755 119.276C30.1441 119.183 30.2719 119.062 30.359 118.912C30.448 118.76 30.4925 118.598 30.4925 118.426V117.864C30.4622 117.894 30.4035 117.922 30.3164 117.949C30.2312 117.973 30.1336 117.995 30.0238 118.014C29.9139 118.031 29.8069 118.047 29.7028 118.062C29.5986 118.076 29.5115 118.087 29.4414 118.097C29.2766 118.117 29.1261 118.152 28.9897 118.202C28.8552 118.251 28.7473 118.322 28.6658 118.415C28.5863 118.506 28.5465 118.627 28.5465 118.778C28.5465 118.989 28.6242 119.148 28.7795 119.256C28.9348 119.362 29.1327 119.415 29.3732 119.415ZM33.2546 118.52L33.2489 117.483H33.3967L35.1353 115.636H36.1523L34.1694 117.739H34.0359L33.2546 118.52ZM32.4734 120V114.182H33.3228V120H32.4734ZM35.229 120L33.6665 117.926L34.2518 117.332L36.2717 120H35.229ZM36.9265 120V115.636H37.7759V120H36.9265ZM37.3555 114.963C37.2077 114.963 37.0808 114.914 36.9748 114.815C36.8706 114.715 36.8185 114.596 36.8185 114.457C36.8185 114.317 36.8706 114.198 36.9748 114.099C37.0808 113.999 37.2077 113.949 37.3555 113.949C37.5032 113.949 37.6291 113.999 37.7333 114.099C37.8394 114.198 37.8924 114.317 37.8924 114.457C37.8924 114.596 37.8394 114.715 37.7333 114.815C37.6291 114.914 37.5032 114.963 37.3555 114.963ZM38.9187 120V115.636H39.734V116.347H39.788C39.8789 116.106 40.0276 115.919 40.234 115.784C40.4405 115.648 40.6876 115.58 40.9755 115.58C41.2672 115.58 41.5115 115.648 41.7085 115.784C41.9073 115.92 42.0541 116.108 42.1488 116.347H42.1942C42.2984 116.114 42.4641 115.928 42.6914 115.79C42.9187 115.65 43.1895 115.58 43.5039 115.58C43.8997 115.58 44.2227 115.704 44.4727 115.952C44.7246 116.2 44.8505 116.574 44.8505 117.074V120H44.0011V117.153C44.0011 116.858 43.9206 116.644 43.7596 116.511C43.5986 116.379 43.4064 116.312 43.1829 116.312C42.9064 116.312 42.6914 116.398 42.538 116.568C42.3846 116.737 42.3079 116.954 42.3079 117.219V120H41.4613V117.099C41.4613 116.863 41.3874 116.672 41.2397 116.528C41.092 116.384 40.8997 116.312 40.663 116.312C40.502 116.312 40.3533 116.355 40.217 116.44C40.0825 116.524 39.9736 116.64 39.8903 116.79C39.8088 116.939 39.7681 117.113 39.7681 117.31V120H38.9187ZM45.989 120V115.636H46.8384V120H45.989ZM46.418 114.963C46.2702 114.963 46.1433 114.914 46.0373 114.815C45.9331 114.715 45.881 114.596 45.881 114.457C45.881 114.317 45.9331 114.198 46.0373 114.099C46.1433 113.999 46.2702 113.949 46.418 113.949C46.5657 113.949 46.6916 113.999 46.7958 114.099C46.9019 114.198 46.9549 114.317 46.9549 114.457C46.9549 114.596 46.9019 114.715 46.7958 114.815C46.6916 114.914 46.5657 114.963 46.418 114.963ZM48.5181 121.636C48.3912 121.636 48.2757 121.626 48.1715 121.605C48.0674 121.586 47.9897 121.565 47.9386 121.543L48.1431 120.847C48.2984 120.888 48.4367 120.906 48.5579 120.901C48.6791 120.895 48.7861 120.849 48.8789 120.764C48.9736 120.679 49.0569 120.54 49.1289 120.347L49.234 120.057L47.6374 115.636H48.5465L49.6516 119.023H49.6971L50.8022 115.636H51.7141L49.9158 120.582C49.8325 120.81 49.7264 121.002 49.5977 121.159C49.4689 121.318 49.3155 121.438 49.1374 121.517C48.9594 121.597 48.753 121.636 48.5181 121.636ZM53.0494 121.636C52.9225 121.636 52.8069 121.626 52.7028 121.605C52.5986 121.586 52.521 121.565 52.4698 121.543L52.6744 120.847C52.8297 120.888 52.9679 120.906 53.0891 120.901C53.2103 120.895 53.3174 120.849 53.4102 120.764C53.5049 120.679 53.5882 120.54 53.6602 120.347L53.7653 120.057L52.1687 115.636H53.0778L54.1829 119.023H54.2283L55.3335 115.636H56.2454L54.4471 120.582C54.3638 120.81 54.2577 121.002 54.1289 121.159C54.0001 121.318 53.8467 121.438 53.6687 121.517C53.4906 121.597 53.2842 121.636 53.0494 121.636ZM58.5714 115.548C59.0013 115.548 59.3716 115.641 59.6822 115.827C59.9928 116.01 60.2314 116.271 60.3981 116.608C60.5647 116.943 60.6481 117.337 60.6481 117.79C60.6481 118.237 60.5647 118.631 60.3981 118.972C60.2314 119.312 59.9966 119.579 59.6935 119.77C59.3924 119.961 59.0392 120.057 58.6339 120.057C58.3858 120.057 58.1462 120.016 57.9151 119.935C57.6841 119.853 57.4767 119.725 57.293 119.551C57.1112 119.377 56.9663 119.151 56.8583 118.872C56.7522 118.594 56.6992 118.258 56.6992 117.864V117.562H60.1708V118.199H57.5344C57.5344 118.422 57.579 118.621 57.668 118.795C57.7589 118.968 57.8858 119.104 58.0487 119.205C58.2134 119.305 58.4057 119.355 58.6254 119.355C58.8678 119.355 59.0761 119.297 59.2504 119.182C59.4265 119.064 59.5629 118.912 59.6594 118.724C59.756 118.537 59.8043 118.335 59.8043 118.119V117.622C59.8043 117.329 59.7522 117.08 59.6481 116.878C59.5458 116.673 59.4019 116.518 59.2163 116.412C59.0307 116.304 58.8138 116.25 58.5657 116.25C58.4047 116.25 58.257 116.274 58.1225 116.321C57.9899 116.366 57.8754 116.436 57.7788 116.528C57.6841 116.619 57.6102 116.734 57.5572 116.872L56.7532 116.727C56.8176 116.491 56.9322 116.284 57.0969 116.108C57.2636 115.93 57.4719 115.793 57.7219 115.696C57.9719 115.598 58.2551 115.548 58.5714 115.548ZM63.6275 115.636V116.318H61.244V115.636H63.6275ZM61.8832 114.591H62.7326V118.719C62.7326 118.884 62.7572 119.008 62.8065 119.091C62.8557 119.172 62.9192 119.228 62.9968 119.259C63.0763 119.287 63.1625 119.301 63.2553 119.301C63.3235 119.301 63.3832 119.296 63.4343 119.287C63.4854 119.277 63.5252 119.27 63.5536 119.264L63.707 119.966C63.6578 119.985 63.5877 120.004 63.4968 120.023C63.4059 120.044 63.2923 120.055 63.1559 120.057C62.9324 120.061 62.7241 120.021 62.5309 119.938C62.3377 119.854 62.1815 119.725 62.0621 119.551C61.9428 119.377 61.8832 119.158 61.8832 118.895V114.591ZM64.5671 120V115.636H65.4165V120H64.5671ZM64.9961 114.963C64.8484 114.963 64.7215 114.914 64.6154 114.815C64.5112 114.715 64.4592 114.596 64.4592 114.457C64.4592 114.317 64.5112 114.198 64.6154 114.099C64.7215 113.999 64.8484 113.949 64.9961 113.949C65.1438 113.949 65.2698 113.999 65.3739 114.099C65.48 114.198 65.533 114.317 65.533 114.457C65.533 114.596 65.48 114.715 65.3739 114.815C65.2698 114.914 65.1438 114.963 64.9961 114.963Z" fill="black"/>
</svg>
