<?xml version="1.0" encoding="utf-8"?>
<!-- Generator: Adobe Illustrator 24.0.3, SVG Export Plug-In . SVG Version: 6.00 Build 0)  -->
<svg version="1.1" id="Layer_1" xmlns="http://www.w3.org/2000/svg" xmlns:xlink="http://www.w3.org/1999/xlink" x="0px" y="0px"
	 viewBox="0 0 3103 1080" style="enable-background:new 0 0 3103 1080;" xml:space="preserve">
<style type="text/css">
	.st0{fill:#4D4D4F;}
	.st1{fill:#F58220;}
	.st2{fill:#FFC20E;}
	.st3{fill:#EF4123;}
	.st4{fill:#8DC63F;}
	.st5{fill:#4A8ECC;}
</style>
<g>
	<g>
		<g>
			<path class="st0" d="M1840.98,718.31c-98.53,0-148.11-40.04-148.11-107.42c0-95.35,101.71-112.51,205.32-118.24v-21.62
				c0-43.22-28.61-58.48-72.47-58.48c-32.42,0-71.83,10.17-94.71,20.97l-17.8-47.67c27.33-12.08,73.74-24.15,119.51-24.15
				c82,0,131.58,31.79,131.58,116.33v216.12C1939.51,707.51,1889.3,718.31,1840.98,718.31z M1898.19,539.06
				c-69.92,3.81-139.85,9.53-139.85,70.55c0,36.24,27.97,58.49,80.73,58.49c22.25,0,48.31-3.82,59.12-8.91V539.06z"/>
			<g>
				<rect x="1981.78" y="263.81" class="st0" width="174.8" height="34.96"/>
				<rect x="2034.22" y="368.69" class="st0" width="69.92" height="342.62"/>
			</g>
			<path class="st0" d="M2174.07,711.32L2325.35,424h-140.48v-55.31h239.01l-151.29,287.33h155.1v55.3H2174.07z"/>
			<path class="st0" d="M2758.25,538.41l-227.57,31.79c6.99,61.66,47.04,92.81,104.88,92.81c34.33,0,71.2-8.27,94.72-20.98
				l20.34,52.13c-26.7,13.98-72.46,24.15-119.51,24.15c-108.07,0-168.45-69.29-168.45-178.62c0-104.89,58.48-177.99,154.47-177.99
				c88.99,0,141.75,58.48,141.75,150.66C2758.88,520.62,2758.88,529.52,2758.25,538.41z M2615.86,412.55
				c-53.4,0-88.36,40.68-89.63,111.88l165.91-22.89C2691.5,441.79,2661.62,412.55,2615.86,412.55z"/>
			<path class="st0" d="M3032.86,711.32V482.47c0-40.04-24.15-64.84-71.83-64.84c-25.43,0-48.94,4.45-62.93,10.17v283.51h-69.29
				V385.85c34.33-13.98,78.19-24.15,131.58-24.15c95.99,0,142.39,41.96,142.39,114.41v235.2H3032.86z"/>
			<polygon class="st0" points="1511.08,530.15 1649.65,368.69 1568.93,368.69 1437.34,522.53 1436.07,522.53 1436.07,368.69 
				1367.42,368.69 1367.42,711.32 1436.07,711.32 1436.07,537.14 1437.34,537.14 1577.82,711.32 1657.91,711.32 			"/>
		</g>
	</g>
	<g>
		<path class="st1" d="M826.52,150.44c9.97-30.67,31.44-99.87,57.27-107.12c-121.98-13.63-268.26,44.7-311.75,231.11
			c6.24,15.11,11.13,30.28,14.68,45.45c29.26-83.53,79.35-154.46,149.59-166.43c-9.82,51.07-14.51,54.24-27.66,80.23
			c67.69-83.98,137.95-18.27,44.72,131.18c-48.35,77.51-84.47,117.83-169.84,138.07c113.88,9.42,188.7-56.01,234.51-117.84
			c66.03-89.14,37.64-216.82,147.33-236.45C913.55,142.74,862.49,132.91,826.52,150.44z"/>
		<path class="st2" d="M515.41,213.19C451.03,122.84,320.83,110.39,336.05,0c-21.62,47.47-46.75,93-41.19,132.62
			c-26.09-18.97-85.27-60.76-84.18-87.57C160.06,156.78,170.2,313.82,333.75,412.8c8.35-0.68,16.6-1.04,24.72-1.04
			c7.77,0,15.43,0.33,22.99,0.94c-70.17-53.6-121.91-123.01-111.61-193.36c45.53,25.12,47.1,30.56,67.76,51.1
			c-58.95-90.33,25.25-136.85,138.58-2c58.77,69.93,85.95,116.75,78.83,204.2C599.17,367.24,560.06,275.86,515.41,213.19z"/>
		<path class="st3" d="M407.21,636.62c-72.77,50.38-154.98,78.32-218.84,46.71c37.97-35.54,43.62-35.36,69.53-48.65
			c-104.13,28.16-122.35-66.3,40.92-132.41c84.67-34.29,137.6-45.67,218.56-11.87C430.8,415.84,331.8,424.8,258.4,447.9
			C152.58,481.2,100.51,601.19,0.22,552.6c38.46,35.23,74,73.2,113.4,80.16c-26.1,18.95-84.14,62.32-109.3,53
			c90.67,82.72,243.28,121.6,388.02-3.61C396.18,666.2,401.15,651.02,407.21,636.62z"/>
		<path class="st4" d="M627.67,681.64c25.42,84.78,26.6,171.6-23.2,222.57c-22.07-47.09-20.15-52.41-24.78-81.16
			c-5.4,107.73-100.86,95.87-113.28-79.84c-6.44-91.12-0.92-144.98,56.25-211.53c-97.67,59.31-119.74,156.23-120.45,233.18
			c-1.03,110.93,97,197.53,19.79,277.9c45.39-25.69,92.48-47.76,111.28-83.08c9.96,30.68,33.27,99.28,16.63,120.33
			c106.69-60.67,190.82-193.79,116.47-370.15C652.4,701.28,639.5,691.86,627.67,681.64z"/>
		<path class="st5" d="M1093.45,682.95c-24.72-120.15-125.28-241.15-315.77-225.1c-12.34,10.63-25.1,19.99-38.29,28.05
			c88.2,2.15,170.75,27.9,203.74,90.83c-51.61,6.44-56.07,2.96-84.85-1.51c100.79,38.43,60.01,125.55-110.94,83.07
			c-88.65-22.03-138.16-43.93-183.8-118.86c26.23,111.22,111.58,162.16,184.54,186.61c105.18,35.26,217.84-31.21,270.41,67.05
			c-10.41-51.11-16.85-102.72-44.63-131.5C1006.12,661.59,1078.57,660.62,1093.45,682.95z"/>
	</g>
</g>
</svg>
