<svg width="130" height="31" viewBox="0 0 130 31" fill="none" xmlns="http://www.w3.org/2000/svg">
<g clip-path="url(#clip0_148_1033)">
<path d="M6.90976 0C10.6769 0.921826 13.9059 4.81398 13.9059 9.41233C13.9275 19.0349 4.87548 20.7815 4.87548 26.4149C4.86024 26.9624 4.93478 27.5088 5.09613 28.0321C2.83044 27.7141 0.90918 25.0726 0.90918 22.0214C0.90918 14.2047 7.71163 12.6845 7.71163 4.55522C7.64284 3.00839 7.37328 1.47711 6.90976 0" fill="#EC1B34"/>
<path d="M16.0801 11.1104C16.9722 11.91 17.6851 12.8898 18.1721 13.9852C18.659 15.0807 18.909 16.267 18.9055 17.4661C18.9055 25.6817 9.62208 26.679 9.62208 29.8272C9.61343 30.0946 9.65356 30.3613 9.74048 30.6143C8.98456 30.289 8.33749 29.7537 7.87587 29.0715C7.41425 28.3894 7.1574 27.589 7.13574 26.7652C7.13574 21.7356 14.8154 20.4472 16.0801 11.1319" fill="#72BE44"/>
<path d="M2.27151 2.60352C2.54619 3.13248 2.69884 3.71646 2.71819 4.3124C2.71819 7.19647 0.0273438 8.2962 0.0273438 11.2288C0.0305331 11.8705 0.199178 12.5005 0.516931 13.0578C0.834684 13.615 1.29077 14.0806 1.84097 14.4094C1.85748 14.1778 1.89715 13.9484 1.95937 13.7247C2.59441 11.687 5.57586 9.41209 5.57586 6.2423C5.5617 5.3368 5.21823 4.46758 4.60988 3.79767C4.00154 3.12775 3.1701 2.70315 2.27151 2.60352" fill="#00A4E4"/>
<path d="M31.806 19.3636C33.5605 20.9485 35.2342 21.8865 37.6398 21.8865C38.9744 21.8865 41.407 21.3204 41.407 19.563C41.407 18.5442 40.6428 18.0321 39.1466 17.7733L34.9489 17.0941C31.214 16.5011 29.169 14.5119 29.169 11.5361C29.169 6.68442 33.1084 4.64131 37.4137 4.64131C39.0852 4.63166 40.7402 4.97249 42.2722 5.64188C43.8043 6.31127 45.1796 7.2944 46.3097 8.52808L42.4833 11.2774C41.8309 10.4791 41.0098 9.83577 40.0792 9.39389C39.1485 8.95201 38.1315 8.72258 37.1016 8.72215C35.9445 8.72215 34.2385 9.46068 34.2385 10.7706C34.2385 11.8488 35.1211 12.3879 37.0424 12.7006L38.9744 13.0078C42.9676 13.6601 46.2828 14.9108 46.2828 18.7652C46.2828 24.8352 40.8096 25.9727 37.0478 25.9727C35.2771 26.0134 33.5189 25.6665 31.8959 24.956C30.2729 24.2456 28.8244 23.1888 27.6514 21.8595L31.806 19.3636Z" fill="#333333"/>
<path d="M58.6871 25.973C52.2291 25.973 48.4619 20.9811 48.4619 15.3046C48.4619 9.62809 52.2291 4.6416 58.6871 4.6416C65.1451 4.6416 68.8854 9.63348 68.8854 15.3046C68.8854 20.9757 65.1182 25.973 58.6925 25.973M58.6925 8.89494C55.7433 8.89494 53.5368 10.7709 53.5368 15.3046C53.5368 18.2588 54.7262 21.7196 58.6925 21.7196C62.4274 21.7196 63.8482 18.4259 63.8482 15.3046C63.8482 12.1833 62.4274 8.89494 58.6871 8.89494" fill="#333333"/>
<path d="M85.3693 11.9354C85.0564 11.0628 84.4878 10.3051 83.7378 9.76168C82.9879 9.21822 82.0916 8.91426 81.1663 8.88959C78.3947 8.88959 76.1882 10.771 76.1882 15.3046C76.1882 18.2588 77.3775 21.7197 81.3492 21.7197C82.2301 21.6592 83.0785 21.3625 83.8057 20.8608C84.5328 20.3591 85.1119 19.6708 85.4824 18.868L89.4756 20.8032C87.748 23.9515 84.7451 25.9622 81.3492 25.9622C74.8912 25.9622 71.124 20.9704 71.124 15.2939C71.124 9.61735 74.6383 4.63086 80.9241 4.63086C84.8904 4.63086 87.4951 6.56076 89.3679 9.90306L85.3693 11.9354Z" fill="#333333"/>
<path d="M97.3223 5.21289H102.532L110.152 25.4014H104.738L103.721 22.2262H96.2728L95.2557 25.4014H89.874L97.3223 5.21289ZM102.499 18.485L100.013 10.1455H99.9593L97.4622 18.485H102.499Z" fill="#333333"/>
<path d="M112.154 5.21289H122.234C126.771 5.21289 129.548 7.30991 129.548 11.8436C129.558 13.0852 129.155 14.2948 128.403 15.2817C127.651 16.2685 126.592 16.9764 125.393 17.2937L130.016 25.4068H124.36L120.394 18.1454H117.197V25.4068H112.154V5.21289ZM117.197 14.3772H121.814C123.429 14.3503 124.505 13.5363 124.505 11.6818C124.505 9.82741 123.429 8.98645 121.814 8.95949H117.197V14.3772Z" fill="#333333"/>
</g>
<defs>
<clipPath id="clip0_148_1033">
<rect width="130" height="30.6143" fill="white"/>
</clipPath>
</defs>
</svg>
