<svg width="170" height="40" viewBox="0 0 170 40" fill="none" xmlns="http://www.w3.org/2000/svg">
<g clip-path="url(#clip0_146_182)">
<path d="M9.02856 0C13.9507 1.20444 18.1696 6.28984 18.1696 12.2979C18.1978 24.8706 6.37062 27.1527 6.37062 34.5131C6.35071 35.2285 6.4481 35.9424 6.65892 36.6262C3.69862 36.2106 1.18834 32.7593 1.18834 28.7727C1.18834 18.5596 10.0763 16.5733 10.0763 5.95175C9.98638 3.9307 9.63419 1.92996 9.02856 0" fill="#EC1B34"/>
<path d="M21.0104 14.5167C22.1759 15.5615 23.1074 16.8416 23.7437 18.2729C24.38 19.7042 24.7065 21.2542 24.702 22.8209C24.702 33.5552 12.5725 34.8583 12.5725 38.9717C12.5612 39.321 12.6136 39.6695 12.7272 40C11.7395 39.5751 10.8941 38.8756 10.2909 37.9843C9.68777 37.093 9.35219 36.0473 9.32388 34.971C9.32388 28.3994 19.358 26.716 21.0104 14.5448" fill="#72BE44"/>
<path d="M2.96733 3.40198C3.32622 4.09311 3.52567 4.85613 3.55095 5.63476C3.55095 9.40303 0.0351562 10.8399 0.0351562 14.6716C0.0393234 15.51 0.259671 16.3332 0.67484 17.0613C1.09001 17.7894 1.68592 18.3977 2.4048 18.8272C2.42637 18.5246 2.4782 18.2249 2.5595 17.9327C3.38922 15.2703 7.28472 12.2979 7.28472 8.15634C7.26622 6.97323 6.81745 5.83753 6.0226 4.96223C5.22775 4.08693 4.14141 3.53216 2.96733 3.40198Z" fill="#00A4E4"/>
<path d="M41.5567 25.3002C43.849 27.371 46.0358 28.5966 49.1789 28.5966C50.9228 28.5966 54.1011 27.857 54.1011 25.5609C54.1011 24.2296 53.1026 23.5605 51.1478 23.2224L45.6631 22.3349C40.7832 21.5602 38.1112 18.9611 38.1112 15.0731C38.1112 8.73395 43.2583 6.06447 48.8836 6.06447C51.0675 6.05186 53.2298 6.49718 55.2316 7.37179C57.2334 8.2464 59.0303 9.53094 60.5068 11.1428L55.5074 14.735C54.655 13.692 53.5821 12.8514 52.3662 12.2741C51.1502 11.6967 49.8214 11.397 48.4758 11.3964C46.964 11.3964 44.735 12.3614 44.735 14.0729C44.735 15.4816 45.8882 16.186 48.3984 16.5945L50.9228 16.996C56.1402 17.8482 60.4717 19.4823 60.4717 24.5184C60.4717 32.4494 53.3205 33.9356 48.4055 33.9356C46.0919 33.9888 43.7946 33.5355 41.6741 32.6072C39.5536 31.679 37.6609 30.2982 36.1283 28.5614L41.5567 25.3002Z" fill="white"/>
<path d="M76.6795 33.9356C68.2416 33.9356 63.3195 27.4133 63.3195 19.9965C63.3195 12.5797 68.2416 6.06445 76.6795 6.06445C85.1174 6.06445 90.0043 12.5867 90.0043 19.9965C90.0043 27.4062 85.0822 33.9356 76.6865 33.9356M76.6865 11.6218C72.8332 11.6218 69.9502 14.0729 69.9502 19.9965C69.9502 23.8563 71.5042 28.3782 76.6865 28.3782C81.5664 28.3782 83.4228 24.0747 83.4228 19.9965C83.4228 15.9183 81.5664 11.6218 76.6795 11.6218" fill="white"/>
<path d="M111.542 15.5943C111.133 14.4542 110.39 13.4643 109.41 12.7542C108.43 12.0441 107.259 11.6469 106.05 11.6147C102.429 11.6147 99.5462 14.0729 99.5462 19.9965C99.5462 23.8563 101.1 28.3782 106.29 28.3782C107.44 28.2992 108.549 27.9116 109.499 27.2561C110.449 26.6006 111.206 25.7012 111.69 24.6522L116.907 27.1808C114.65 31.2942 110.726 33.9215 106.29 33.9215C97.8516 33.9215 92.9295 27.3992 92.9295 19.9824C92.9295 12.5656 97.5211 6.05035 105.734 6.05035C110.916 6.05035 114.32 8.57193 116.767 12.9389L111.542 15.5943Z" fill="white"/>
<path d="M127.159 6.81104H133.966L143.923 33.1889H136.849L135.52 29.0403H125.788L124.459 33.1889H117.428L127.159 6.81104ZM133.924 24.1521L130.675 13.2558H130.605L127.342 24.1521H133.924Z" fill="white"/>
<path d="M146.538 6.81104H159.708C165.636 6.81104 169.264 9.55095 169.264 15.4745C169.278 17.0968 168.751 18.6773 167.768 19.9667C166.785 21.2561 165.402 22.181 163.836 22.5955L169.876 33.196H162.486L157.304 23.7084H153.127V33.196H146.538V6.81104ZM153.127 18.785H159.16C161.27 18.7498 162.676 17.6862 162.676 15.2632C162.676 12.8403 161.27 11.7415 159.16 11.7063H153.127V18.785Z" fill="white"/>
</g>
<defs>
<clipPath id="clip0_146_182">
<rect width="169.855" height="40" fill="white"/>
</clipPath>
</defs>
</svg>
